<?xml version="1.0" standalone="no"?>
<!DOCTYPE svg PUBLIC "-//W3C//DTD SVG 1.1//EN" "http://www.w3.org/Graphics/SVG/1.1/DTD/svg11.dtd" >
<svg xmlns="http://www.w3.org/2000/svg">
<metadata>Generated by IcoMoon</metadata>
<defs>
<font id="icomoon" horiz-adv-x="1024">
<font-face units-per-em="1024" ascent="960" descent="-64" />
<missing-glyph horiz-adv-x="1024" />
<glyph unicode="&#x20;" horiz-adv-x="512" d="" />
<glyph unicode="&#xe900;" glyph-name="cloud-icon" horiz-adv-x="908" d="M491.913-64l-170.225 264.795h340.451zM454.086 144.053v418.754h75.656v-418.754zM839.173 654.843c2.735 13.802 4.33 29.696 4.388 45.951v0.047c-0.092 143.248-116.238 259.337-259.499 259.337-111.653 0-206.836-70.514-243.445-169.439l-0.582-1.797c-14.175 5.789-30.624 9.148-47.857 9.148-60.89 0-111.984-41.943-125.965-98.514l-0.186-0.891c-94.713-14.216-166.507-95.015-166.507-192.583 0-107.488 87.136-194.624 194.624-194.624 0.209 0 0.417 0 0.626 0.001h162.174c17.915 0 32.437 14.523 32.437 32.437s-14.523 32.437-32.437 32.437h-162.206c-71.659 0-129.75 58.091-129.75 129.75s58.091 129.75 129.75 129.75v0c17.904 0 32.418 14.514 32.418 32.418v0c0 0.008 0 0.018 0 0.028 0 35.829 29.045 64.875 64.875 64.875 17.696 0 33.737-7.085 45.441-18.573l-0.010 0.010c5.851-5.777 13.895-9.346 22.773-9.346 16.075 0 29.417 11.7 31.976 27.049l0.026 0.189c16.94 91.542 96.158 159.955 191.353 159.955 107.384 0 194.435-87.052 194.435-194.435 0-10.327-0.805-20.466-2.356-30.357l0.142 1.098q-1.589-9.457-4.085-18.914c-0.74-2.583-1.166-5.551-1.166-8.617 0-11.253 5.734-21.167 14.439-26.98l0.118-0.074c35.17-23.582 58.009-63.18 58.009-108.112 0-71.546-57.908-129.566-129.411-129.749h-97.121c-17.915 0-32.437-14.523-32.437-32.437s14.523-32.437 32.437-32.437h97.293c107.392 0.128 194.4 87.215 194.4 194.624 0 59.441-26.647 112.659-68.648 148.358l-0.277 0.23z" />
<glyph unicode="&#xe901;" glyph-name="Group-267" horiz-adv-x="2332" d="M2332.444 448l-796.444-512v1024z" />
<glyph unicode="&#xe90a;" glyph-name="guarantee1" d="M788.321 375.049h-154.483v87.411c0.171 2.626 0.269 5.694 0.269 8.785 0 23.922-5.844 46.479-16.183 66.321l0.377-0.796c-19.297 32.962-55.102 49.682-106.425 49.682-13.475 0-24.399-10.924-24.399-24.399v0-125.21l-43.661-70.956-53.901-35.204v19.986c0 13.475-10.924 24.399-24.399 24.399v0h-162.604c-13.468-0.010-24.382-10.93-24.382-24.399 0-0.006 0-0.012 0-0.019v0.001-390.179c0-13.475 10.924-24.399 24.399-24.399v0h162.604c8.782 0.005 16.476 4.659 20.755 11.635l0.061 0.106c12.675-7.382 27.897-11.74 44.138-11.741h325.368c0.010 0 0.021 0 0.033 0 40.387 0 73.128 32.74 73.128 73.128 0 14.861-4.433 28.687-12.049 40.227l0.17-0.274c2.471 1.934 4.67 3.875 6.749 5.937l-0.005-0.005c13.226 13.224 21.407 31.494 21.407 51.675 0 14.863-4.438 28.69-12.060 40.228l0.169-0.273c2.471 1.933 4.67 3.875 6.749 5.937l-0.005-0.005c13.226 13.227 21.407 31.5 21.407 51.683 0 18.784-7.085 35.912-18.729 48.86l0.059-0.067c11.57 12.889 18.646 30.017 18.646 48.799 0 40.405-32.745 73.162-73.145 73.181h-0.002zM341.151-15.13h-113.841v341.398h113.823zM773.085-7.962c-4.404-4.428-10.501-7.168-17.238-7.168-0.016 0-0.033 0-0.049 0h-325.223c-22.406 0.050-40.557 18.201-40.607 40.602v246.93l88.541 57.821c5.525 3.689 9.44 9.42 10.676 16.090l0.023 0.152 43.502 70.621c2.218 3.604 3.532 7.971 3.532 12.644 0 0.055 0 0.11-0.001 0.165v-0.008 105.931c44.668-7.592 48.781-37.835 48.781-73.375v-111.793c0-13.475 10.924-24.399 24.399-24.399v0h178.865c0.195 0.006 0.426 0.009 0.656 0.009 13.475 0 24.399-10.924 24.399-24.399s-10.924-24.399-24.399-24.399c-0.231 0-0.461 0.003-0.69 0.010l0.034-0.001h-48.781c-13.19-0.366-23.743-11.146-23.743-24.391s10.553-24.025 23.709-24.39l0.034-0.001h48.781c0.195 0.006 0.426 0.009 0.656 0.009 13.475 0 24.399-10.924 24.399-24.399s-10.924-24.399-24.399-24.399c-0.231 0-0.461 0.003-0.69 0.010l0.034-0.001h-48.781c-0.195 0.006-0.426 0.009-0.656 0.009-13.475 0-24.399-10.924-24.399-24.399s10.924-24.399 24.399-24.399c0.231 0 0.461 0.003 0.69 0.010l-0.034-0.001h32.521c0.195 0.006 0.426 0.009 0.656 0.009 13.475 0 24.399-10.924 24.399-24.399s-10.924-24.399-24.399-24.399c-0.231 0-0.461 0.003-0.69 0.010l0.034-0.001h-32.521c-0.195 0.006-0.426 0.009-0.656 0.009-13.475 0-24.399-10.924-24.399-24.399s10.924-24.399 24.399-24.399c0.231 0 0.461 0.003 0.69 0.010l-0.034-0.001h16.26c13.472-0.004 24.392-10.927 24.392-24.399 0-6.718-2.715-12.802-7.108-17.215l0.001 0.001zM308.63 23.393c0-13.475-10.924-24.399-24.399-24.399s-24.399 10.924-24.399 24.399c0 13.475 10.924 24.399 24.399 24.399s24.399-10.924 24.399-24.399zM413.643 752.234l-14.83-86.51c-0.216-1.219-0.339-2.623-0.339-4.055 0-13.475 10.924-24.399 24.399-24.399 4.111 0 7.985 1.017 11.383 2.812l-0.133-0.064 77.683 40.836 77.683-40.836c3.215-1.654 7.016-2.623 11.043-2.623 13.563 0 24.558 10.995 24.558 24.558 0 1.331-0.106 2.637-0.31 3.911l0.018-0.14-14.83 86.51 62.835 61.246c4.536 4.434 7.348 10.615 7.348 17.452 0 12.231-8.999 22.36-20.738 24.127l-0.134 0.017-86.846 12.623-38.841 78.689c-4.076 8.117-12.336 13.591-21.875 13.591s-17.798-5.473-21.811-13.45l-0.064-0.14-38.841-78.689-86.846-12.623c-11.873-1.783-20.872-11.912-20.872-24.143 0-6.837 2.812-13.018 7.344-17.448l0.005-0.004zM470.863 821.283c8.102 1.213 14.809 6.262 18.297 13.207l0.064 0.14 22.634 45.903 22.634-45.903c3.552-7.085 10.259-12.134 18.227-13.331l0.134-0.017 50.617-7.362-36.617-35.699c-4.57-4.439-7.406-10.643-7.406-17.509 0-1.442 0.125-2.856 0.365-4.229l-0.021 0.146 8.651-50.406-45.268 23.799c-3.291 1.765-7.201 2.802-11.352 2.802s-8.061-1.037-11.483-2.866l0.131 0.064-45.268-23.799 8.651 50.406c0.219 1.228 0.344 2.641 0.344 4.083 0 6.866-2.836 13.069-7.4 17.503l-0.006 0.006-36.634 35.699zM1014.007 597.822l-70.25 52.648 3.531 87.676c0.013 0.293 0.020 0.637 0.020 0.982 0 13.475-10.924 24.399-24.399 24.399-5.259 0-10.129-1.664-14.113-4.494l0.075 0.051-71.751-50.494-82.273 30.49c-2.509 0.954-5.411 1.507-8.442 1.507-13.475 0-24.399-10.924-24.399-24.399 0-2.541 0.388-4.991 1.109-7.294l-0.047 0.173 25.847-83.862-54.413-68.855c-3.27-4.114-5.246-9.384-5.246-15.116 0-13.34 10.705-24.179 23.993-24.396h0.020l87.746-1.324 48.658-73.039c4.487-6.477 11.88-10.666 20.251-10.666 10.601 0 19.633 6.717 23.073 16.127l0.055 0.171 28.372 82.979 84.498 23.711c10.348 2.981 17.789 12.365 17.789 23.487 0 7.946-3.798 15.004-9.677 19.459l-0.061 0.044zM895.947 574.641c-7.767-2.23-13.84-8.007-16.438-15.418l-0.052-0.171-16.543-48.41-28.354 42.567c-4.368 6.494-11.64 10.743-19.913 10.875h-0.020l-51.2 0.777 31.779 40.13c3.273 4.115 5.251 9.388 5.251 15.122 0 2.568-0.397 5.042-1.132 7.367l0.047-0.173-15.078 48.887 47.969-17.779c2.516-0.96 5.427-1.516 8.467-1.516 5.261 0 10.134 1.665 14.119 4.498l-0.075-0.051 41.825 29.431-2.083-51.112c-0.012-0.291-0.019-0.632-0.019-0.974 0-7.957 3.809-15.025 9.704-19.479l0.061-0.045 40.925-30.685zM310.449 516.802c13.256 0.393 23.853 11.233 23.853 24.548 0 5.657-1.913 10.868-5.128 15.020l0.042-0.056-54.413 68.855 25.847 83.862c0.674 2.13 1.062 4.581 1.062 7.121 0 13.475-10.924 24.399-24.399 24.399-3.031 0-5.933-0.553-8.61-1.563l0.168 0.056-82.291-30.49-71.751 50.494c-3.912 2.785-8.787 4.453-14.052 4.453-13.475 0-24.399-10.924-24.399-24.399 0-0.312 0.006-0.622 0.017-0.931l-0.001 0.045 3.531-87.676-70.162-52.718c-5.94-4.499-9.738-11.558-9.738-19.503 0-11.122 7.441-20.506 17.617-23.444l0.172-0.043 84.498-23.693 28.372-82.979c3.494-9.581 12.526-16.298 23.127-16.298 8.372 0 15.765 4.189 20.198 10.585l0.053 0.081 48.658 73.039zM189.21 553.19l-28.354-42.567-16.543 48.41c-2.65 7.582-8.723 13.359-16.318 15.547l-0.172 0.042-49.258 13.824 40.925 30.685c5.956 4.499 9.765 11.566 9.765 19.524 0 0.343-0.007 0.684-0.021 1.023l0.002-0.049-2.083 51.112 41.825-29.449c3.91-2.782 8.782-4.447 14.044-4.447 3.040 0 5.95 0.556 8.634 1.572l-0.168-0.056 47.969 17.779-15.078-48.87c-0.688-2.152-1.085-4.626-1.085-7.194 0-5.735 1.978-11.007 5.29-15.172l-0.038 0.050 31.779-40.13-51.2-0.777c-8.292-0.132-15.565-4.382-19.877-10.788l-0.055-0.087z" />
<glyph unicode="&#xe92a;" glyph-name="advertising1" d="M970.593 570.577c33.040 40.641 53.050 93.029 53.050 150.091 0 131.913-106.936 238.849-238.849 238.849-74.033 0-140.2-33.683-184.011-86.56l-0.32-0.397c-22.604-28.689-57.348-46.941-96.354-46.941-10.518 0-20.726 1.327-30.466 3.823l0.848-0.184c-24.597 7.107-52.851 11.195-82.059 11.195-13.82 0-27.426-0.915-40.761-2.688l1.563 0.17c-137.2-19.144-244.659-125.815-264.806-260.998l-0.208-1.698c-1.843-12.602-2.896-27.151-2.896-41.946 0-49.815 11.932-96.844 33.094-138.383l-0.801 1.731c-65.119-1.031-117.512-54.062-117.512-119.33 0-60.449 44.942-110.401 103.236-118.266l0.615-0.068 18.404-188.837c0-18.855 15.285-34.141 34.141-34.141v0h99.484c10.342 0.008 19.607 4.618 25.857 11.892l0.038 0.045c5.070 6.014 8.151 13.85 8.151 22.405 0 2.34-0.231 4.627-0.67 6.838l0.037-0.222-45.539 180.888h8.542c20.006-0.114 39.562-1.589 58.706-4.337l-2.281 0.269c60.833-129.623 190.262-217.777 340.282-217.777 0.026 0 0.051 0 0.077 0h-0.004q16.895 0 34.141 1.509c180.907 18.418 323.146 161.962 339.412 341.855l0.107 1.464c0.811 9.218 1.273 19.943 1.273 30.776 0 73.506-21.286 142.040-58.031 199.775l0.898-1.51c-5.064 7.888-8.073 17.516-8.073 27.846 0 12.505 4.409 23.98 11.757 32.956l-0.073-0.092zM102.395 193.684c-39.281 8.165-68.377 42.491-68.377 83.613s29.095 75.449 67.823 83.517l0.554 0.096zM255.987-29.967l-99.7 1.698-18.081 185.927h70.41zM136.616 191.96v170.649h34.141v-170.649zM252.322 191.96h-47.533v170.649h47.533c0.041 0 0.091 0 0.14 0 52.074 0 102.124 8.66 148.791 24.62l-3.234-0.961 79.868 26.623v-271.184l-79.868 26.623c-43.411 14.981-93.438 23.632-145.485 23.632-0.074 0-0.149 0-0.223 0h0.011zM988.701 283.576c-14.544-176.092-161.046-313.497-339.641-313.497-127.758 0-239.093 70.314-297.419 174.354l-0.885 1.718c12.26-2.91 24.44-6.251 36.458-10.239l187.705-62.568c1.616-0.562 3.478-0.887 5.416-0.887 9.376 0 16.976 7.6 16.976 16.976 0 0.028 0 0.055 0 0.083v-0.004 85.392c37.696 0 68.254 30.558 68.254 68.254v0 68.254c0 37.696-30.558 68.254-68.254 68.254v0 85.338c-0.009 9.414-7.642 17.041-17.057 17.041-1.928 0-3.781-0.32-5.509-0.909l0.12 0.036-187.705-62.568c-40.202-13.866-86.53-21.875-134.727-21.88h-95.93c-23.169 39.245-36.857 86.477-36.857 136.905 0 150.604 122.089 272.693 272.693 272.693 25.961 0 51.074-3.628 74.861-10.404l-1.923 0.468c11.689-3.129 25.109-4.927 38.949-4.927 49.609 0 93.825 23.094 122.482 59.119l0.245 0.32c37.715 42.712 92.601 69.51 153.747 69.51 113.102 0 204.789-91.687 204.789-204.789 0-46.566-15.542-89.503-41.722-123.904l0.367 0.503c-12.016-14.702-19.296-33.682-19.296-54.363 0-17.019 4.931-32.886 13.441-46.252l-0.208 0.349c32.527-51.083 51.84-113.336 51.84-180.1 0-9.952-0.429-19.805-1.27-29.539l0.088 1.266zM511.973 130.307v293.953l51.197 17.057v-328.067zM597.284 209.016v136.535c18.855 0 34.141-15.285 34.141-34.141v0-68.254c-0.015-18.815-15.249-34.068-34.055-34.114h-0.004zM239.011 260.214h68.254v-34.141h-68.254v34.141zM239.011 328.495h68.254v-34.141h-68.254v34.141zM867.525 730.421c-1.272 1.892-2.851 3.47-4.682 4.704l-0.061 0.039-102.395 68.254c-2.664 1.804-5.949 2.88-9.485 2.88-9.42 0-17.057-7.637-17.057-17.057 0-0.008 0-0.017 0-0.025v0.001-136.535c0-0.007 0-0.016 0-0.024 0-9.42 7.637-17.057 17.057-17.057 3.536 0 6.821 1.076 9.545 2.919l-0.060-0.038 102.395 68.254c4.619 3.101 7.618 8.304 7.618 14.207 0 3.533-1.074 6.816-2.914 9.538l0.038-0.060zM768.013 684.612v72.754l54.619-36.377zM785.070 874.527c-84.826 0-153.592-68.765-153.592-153.592s68.765-153.592 153.592-153.592c84.826 0 153.592 68.765 153.592 153.592v0c0 84.826-68.765 153.592-153.592 153.592v0zM785.070 601.511c-65.971 0-119.451 53.48-119.451 119.451s53.48 119.451 119.451 119.451c65.971 0 119.451-53.48 119.451-119.451v0c0-65.971-53.48-119.451-119.451-119.451v0zM443.773 652.708h-17.057c-9.42 0-17.057 7.637-17.057 17.057v0 51.197c0 28.275-22.922 51.197-51.197 51.197s-51.197-22.922-51.197-51.197v0-51.197c0-9.42-7.637-17.057-17.057-17.057v0c0 9.42-7.637 17.057-17.057 17.057v0h-68.281c-9.42 0-17.057-7.637-17.057-17.057v0-187.705c0-9.42 7.637-17.057 17.057-17.057v0h68.254c9.42 0 17.057 7.637 17.057 17.057v0h153.592c28.275 0 51.197 22.922 51.197 51.197v0 85.311c0 28.275-22.922 51.197-51.197 51.197v0zM256.067 482.060h-34.114v153.592h34.141zM460.857 516.2c0-9.42-7.637-17.057-17.057-17.057h-153.592v119.451c28.275 0 51.197 22.922 51.197 51.197v0 51.197c0 9.428 7.643 17.070 17.070 17.070s17.070-7.643 17.070-17.070v0-51.197c0-28.275 22.922-51.197 51.197-51.197v0h17.057c9.42 0 17.057-7.637 17.057-17.057v0zM940.683 340.405l-7.275 7.302c-9.29 9.247-22.101 14.963-36.247 14.963-10.589 0-20.431-3.203-28.608-8.693l0.185 0.117-18.458-12.314-18.458 12.314c-7.992 5.378-17.835 8.584-28.426 8.584-14.146 0-26.957-5.719-36.245-14.972l-7.3-7.3c-9.257-9.264-14.982-22.057-14.982-36.188s5.725-26.925 14.982-36.189l78.143-78.143c3.093-3.125 7.383-5.061 12.126-5.061s9.033 1.935 12.124 5.059l78.144 78.144c9.346 9.278 15.131 22.132 15.131 36.337 0 14.057-5.666 26.792-14.838 36.044l0.004-0.004zM916.593 292.172v0l-66.206-66.179-66.179 66.098c-3.125 3.093-5.061 7.383-5.061 12.126s1.935 9.033 5.059 12.124l7.276 7.276c3.088 3.094 7.357 5.008 12.073 5.008 3.536 0 6.82-1.076 9.544-2.918l-0.060 0.038 27.889-18.593c2.652-1.782 5.918-2.845 9.431-2.845s6.779 1.062 9.492 2.883l-0.061-0.039 27.916 18.593c2.663 1.804 5.948 2.879 9.483 2.879 4.716 0 8.985-1.914 12.073-5.008v0l7.275-7.275c3.125-3.093 5.061-7.383 5.061-12.126 0-4.716-1.914-8.984-5.007-12.072v0zM649.074 434.985l17.083 68.251 33.093-8.283-17.083-68.251-33.093 8.283zM692.080 412.027l68.255 34.127 15.268-30.536-68.255-34.127-15.268 30.536zM648.993 102.526l33.095 8.273 17.062-68.256-33.095-8.273-17.062 68.256zM692.080 125.538l15.268 30.536 68.255-34.127-15.268-30.536-68.255 34.127zM17.165 499.116h34.141c0 231.573 137.424 375.411 358.381 375.411v34.141c-242.136 0-392.522-156.987-392.522-409.551z" />
<glyph unicode="&#xe92b;" glyph-name="arrow1" horiz-adv-x="2332" d="M2332.444 448l-796.444-512v1024zM1706.667 391.111h-1706.667v113.778h1706.667z" />
<glyph unicode="&#xe92c;" glyph-name="branding1" d="M153.557 925.914h563.243v-477.914h34.086v341.343h119.471v-341.343h34.086v358.386c0 9.413-7.63 17.043-17.043 17.043v0h-136.458v119.528c0 9.413-7.63 17.043-17.043 17.043v0h-597.385c-9.413 0-17.043-7.63-17.043-17.043v0-153.614h34.086zM733.871 72.628c9.413 0 17.043 7.63 17.043 17.043v0 51.129h-34.086v-34.086h-563.271v34.086h-34.086v-51.129c0-9.413 7.63-17.043 17.043-17.043h136.543v-119.471c0-9.413 7.63-17.043 17.043-17.043v0h597.385c9.413 0 17.043 7.63 17.043 17.043v0 187.643h-34.086v-170.657h-563.243v102.485zM17.043 448h512.028c9.413 0 17.043 7.63 17.043 17.043v0 273.114c0 9.413-7.63 17.043-17.043 17.043v0h-512.028c-9.413 0-17.043-7.63-17.043-17.043v0-273.057c0-0.017 0-0.037 0-0.057 0-9.413 7.63-17.043 17.043-17.043 0 0 0 0 0 0v0zM34.086 721.114h477.914v-38.091l-238.943-63.712-238.971 63.656zM34.086 647.744l234.54-62.491c1.321-0.367 2.837-0.579 4.403-0.579s3.082 0.211 4.522 0.607l-0.12-0.028 234.54 62.491v-165.544h-477.886zM17.043 174.914h341.371c9.413 0 17.043 7.63 17.043 17.043v0 204.857c0 9.413-7.63 17.043-17.043 17.043h-341.371c-9.413 0-17.043-7.63-17.043-17.043v0-204.8c0-0.017 0-0.037 0-0.057 0-9.413 7.63-17.043 17.043-17.043 0 0 0 0 0 0v0zM34.086 379.714h307.257v-170.657h-307.257zM614.315 772.413c1.931 0.001 3.787 0.323 5.517 0.916l-0.12-0.036 51.129 17.043c6.84 2.32 11.674 8.683 11.674 16.175 0 0.005 0 0.011 0 0.016v-0.001 51.101c0 0.005 0 0.010 0 0.015 0 7.492-4.835 13.855-11.554 16.14l-0.12 0.035-51.129 17.043c-1.61 0.556-3.466 0.877-5.397 0.877s-3.787-0.321-5.517-0.913l0.12 0.036-51.129-17.043c-6.84-2.32-11.674-8.683-11.674-16.175 0-0.005 0-0.011 0-0.016v0.001-51.129c0-0.005 0-0.010 0-0.015 0-7.492 4.835-13.855 11.554-16.14l0.12-0.035 51.129-17.043c1.589-0.54 3.419-0.852 5.322-0.852 0.026 0 0.053 0 0.079 0h-0.004zM580.229 845.443l34.086 11.362 34.086-11.362v-26.587l-34.086-11.362-34.086 11.362zM297.741 326.824l-34.086 17.043c-2.222 1.136-4.847 1.802-7.627 1.802s-5.405-0.666-7.723-1.846l0.097 0.045-34.086-17.043c-5.636-2.859-9.431-8.61-9.431-15.249 0-0.042 0-0.083 0-0.125v0.006-34.086c0-0.035 0-0.077 0-0.119 0-6.638 3.795-12.39 9.334-15.204l0.097-0.045 34.086-17.043c2.222-1.136 4.847-1.802 7.627-1.802s5.405 0.666 7.723 1.846l-0.097-0.045 34.086 17.043c5.636 2.859 9.431 8.61 9.431 15.249 0 0.042 0 0.083 0 0.125v-0.006 34.086c0 0.035 0 0.077 0 0.119 0 6.638-3.795 12.39-9.334 15.204l-0.097 0.045zM273.057 287.881l-17.043-8.521-17.043 8.521v13.038l17.043 8.521 17.043-8.521zM68.257 345.6h102.4v-34.086h-102.4zM68.257 277.314h102.4v-34.086h-102.4zM972.814 277.314h-341.343c-0.004 0-0.009 0-0.013 0-4.71 0-8.974-1.911-12.059-4.999v0l-34.086-34.086c-3.097-3.086-5.013-7.355-5.013-12.072s1.916-8.986 5.012-12.072v0l34.086-34.086c3.085-3.089 7.349-4.999 12.059-4.999 0.005 0 0.009 0 0.014 0h341.342c28.238 0 51.129 22.891 51.129 51.129s-22.891 51.129-51.129 51.129v0zM921.685 209.142h-283.056l-17.043 17.043 17.043 17.043h283.056zM972.814 209.142h-17.043v34.086h17.043c9.413 0 17.043-7.63 17.043-17.043s-7.63-17.043-17.043-17.043v0zM972.814 413.857h-341.343c-0.004 0-0.009 0-0.013 0-4.71 0-8.974-1.911-12.059-4.999v0l-34.086-34.086c-3.097-3.086-5.013-7.355-5.013-12.072s1.916-8.986 5.012-12.072v0l34.086-34.086c3.085-3.089 7.349-4.999 12.059-4.999 0.005 0 0.009 0 0.014 0h341.342c28.277 0 51.2 22.923 51.2 51.2s-22.923 51.2-51.2 51.2v0zM921.685 345.685h-283.056l-17.043 17.043 17.043 17.043h283.056zM972.814 345.685h-17.043v34.086h17.043c9.413 0 17.043-7.63 17.043-17.043s-7.63-17.043-17.043-17.043v0zM68.257 567.471h51.129v-34.086h-51.129z" />
<glyph unicode="&#xe92d;" glyph-name="business-and-trade1" horiz-adv-x="1032" d="M560.104 887.29l-472.394 71.749c-3.654 0.621-7.862 0.976-12.154 0.976-18.659 0-35.752-6.708-48.997-17.845l0.116 0.095c-16.272-14.082-26.543-34.72-26.675-57.761v-905.5c0.042-23.734 19.271-42.963 43.001-43.005h139.661v225.667c0 0.066 0 0.144 0 0.222 0 41.422 33.579 75.001 75.001 75.001 0.078 0 0.156 0 0.234 0h107.501c0.066 0 0.144 0 0.222 0 41.422 0 75.001-33.579 75.001-75.001 0-0.078 0-0.156 0-0.234v0.012-225.667h182.662v876.88c0 0.028 0 0.061 0 0.095 0 37.306-27.13 68.275-62.736 74.253l-0.442 0.061zM236.455 333.615h-64.508c-17.813 0-32.254 14.441-32.254 32.254s14.441 32.254 32.254 32.254h64.508c17.813 0 32.254-14.441 32.254-32.254s-14.441-32.254-32.254-32.254v0zM236.455 462.557h-64.508c-17.813 0-32.254 14.441-32.254 32.254s14.441 32.254 32.254 32.254h64.508c17.813 0 32.254-14.441 32.254-32.254s-14.441-32.254-32.254-32.254v0zM236.455 591.499h-64.508c-17.813 0-32.254 14.441-32.254 32.254s14.441 32.254 32.254 32.254h64.508c17.813 0 32.254-14.441 32.254-32.254s-14.441-32.254-32.254-32.254v0zM236.455 720.441h-64.508c-17.813 0-32.254 14.441-32.254 32.254s14.441 32.254 32.254 32.254h64.508c17.813 0 32.254-14.441 32.254-32.254s-14.441-32.254-32.254-32.254v0zM451.334 333.615h-64.434c-17.813 0-32.254 14.441-32.254 32.254s14.441 32.254 32.254 32.254h64.508c17.813 0 32.254-14.441 32.254-32.254s-14.441-32.254-32.254-32.254v0zM451.334 462.557h-64.434c-17.813 0-32.254 14.441-32.254 32.254s14.441 32.254 32.254 32.254h64.508c17.813 0 32.254-14.441 32.254-32.254s-14.441-32.254-32.254-32.254v0zM451.334 591.499h-64.434c-17.813 0-32.254 14.441-32.254 32.254s14.441 32.254 32.254 32.254h64.508c17.813 0 32.254-14.441 32.254-32.254s-14.441-32.254-32.254-32.254v0zM451.334 720.441h-64.434c-17.813 0-32.254 14.441-32.254 32.254s14.441 32.254 32.254 32.254h64.508c17.813 0 32.254-14.441 32.254-32.254s-14.441-32.254-32.254-32.254v0zM972.349 501.646l-306.062 64.065v-629.71h290.175c41.527 0.042 75.18 33.695 75.222 75.218v416.905c0 0.088 0.001 0.192 0.001 0.296 0 35.845-25.195 65.805-58.842 73.137l-0.494 0.090zM870.452 65.016h-64.508c-17.813 0-32.254 14.441-32.254 32.254s14.441 32.254 32.254 32.254v0h64.508c17.813 0 32.254-14.441 32.254-32.254s-14.441-32.254-32.254-32.254v0zM870.452 193.958h-64.508c-17.813 0-32.254 14.441-32.254 32.254s14.441 32.254 32.254 32.254v0h64.508c17.813 0 32.254-14.441 32.254-32.254s-14.441-32.254-32.254-32.254v0zM870.452 322.9h-64.508c-17.813 0-32.254 14.441-32.254 32.254s14.441 32.254 32.254 32.254v0h64.508c17.813 0 32.254-14.441 32.254-32.254s-14.441-32.254-32.254-32.254v0z" />
<glyph unicode="&#xe92e;" glyph-name="cellphone1" horiz-adv-x="546" d="M460.694 960h-375.371c-47.085-0.094-85.229-38.239-85.323-85.314v-853.362c0.094-47.085 38.239-85.229 85.314-85.323h375.38c0 0 0 0 0 0 47.156 0 85.395 38.18 85.489 85.314v853.362c-0.095 47.143-38.333 85.323-85.49 85.323 0 0 0 0 0 0v0zM205.246-29.875h-119.899c-28.276 0-51.199 22.922-51.199 51.199v0 51.199h171.122c-10.923-13.995-17.514-31.835-17.514-51.214 0-19.366 6.582-37.194 17.63-51.37l-0.14 0.187zM273.068-29.875c-28.276 0-51.199 22.922-51.199 51.199s22.922 51.199 51.199 51.199c28.276 0 51.199-22.922 51.199-51.199v0c0-28.268-22.909-51.185-51.174-51.199h-0.001zM512.012 21.323c0-28.276-22.922-51.199-51.199-51.199v0h-119.899c10.916 13.992 17.502 31.826 17.502 51.199s-6.586 37.207-17.642 51.385l0.14-0.186h171.122zM512.012 106.647h-477.887v665.608h477.864zM512.012 806.38h-477.887v68.297c0 28.276 22.922 51.199 51.199 51.199v0h375.371c28.276 0 51.199-22.922 51.199-51.199v0zM157.942 870.117h166.301v-25.576h-166.301v25.576zM204.795 618.659h-68.273c-28.276 0-51.199-22.922-51.199-51.199v0-68.273c0-28.276 22.922-51.199 51.199-51.199v0h68.273c28.276 0 51.199 22.922 51.199 51.199v0 68.273c0 28.276-22.922 51.199-51.199 51.199v0zM221.869 499.187c0-9.43-7.644-17.074-17.074-17.074v0h-68.273c-9.43 0-17.074 7.644-17.074 17.074v0 68.273c0 9.43 7.644 17.074 17.074 17.074v0h68.273c9.43 0 17.074-7.644 17.074-17.074v0zM409.614 618.659h-68.273c-28.276 0-51.199-22.922-51.199-51.199v0-68.273c0-28.276 22.922-51.199 51.199-51.199v0h68.273c28.276 0 51.199 22.922 51.199 51.199v0 68.273c0 28.276-22.922 51.199-51.199 51.199v0zM426.688 499.187c0-9.43-7.644-17.074-17.074-17.074v0h-68.273c-9.43 0-17.074 7.644-17.074 17.074v0 68.273c0 9.43 7.644 17.074 17.074 17.074v0h68.273c9.43 0 17.074-7.644 17.074-17.074v0zM204.795 413.864h-68.273c-28.276 0-51.199-22.922-51.199-51.199v-68.273c0-28.276 22.922-51.199 51.199-51.199v0h68.273c28.276 0 51.199 22.922 51.199 51.199v68.273c0 28.276-22.922 51.199-51.199 51.199v0zM221.869 294.392c0-9.43-7.644-17.074-17.074-17.074v0h-68.273c-9.43 0-17.074 7.644-17.074 17.074v0 68.273c0 9.43 7.644 17.074 17.074 17.074v0h68.273c9.43 0 17.074-7.644 17.074-17.074v0zM409.614 413.864h-68.273c-28.276 0-51.199-22.922-51.199-51.199v-68.273c0-28.276 22.922-51.199 51.199-51.199v0h68.273c28.276 0 51.199 22.922 51.199 51.199v68.273c0 28.276-22.922 51.199-51.199 51.199v0zM426.688 294.392c0-9.43-7.644-17.074-17.074-17.074v0h-68.273c-9.43 0-17.074 7.644-17.074 17.074v0 68.273c0 9.43 7.644 17.074 17.074 17.074v0h68.273c9.43 0 17.074-7.644 17.074-17.074v0zM136.546 738.131h-51.199c-9.43 0-17.074-7.644-17.074-17.074v0-51.199c0.352-9.152 7.856-16.438 17.062-16.438s16.71 7.286 17.061 16.406l0.001 0.032v34.125h34.125c9.152 0.352 16.438 7.856 16.438 17.062s-7.286 16.71-16.406 17.061l-0.032 0.001zM238.944 738.131h-34.125c-9.152-0.352-16.438-7.856-16.438-17.062s7.286-16.71 16.406-17.061l0.032-0.001h34.125c0.19-0.008 0.413-0.012 0.637-0.012 9.43 0 17.074 7.644 17.074 17.074s-7.644 17.074-17.074 17.074c-0.224 0-0.447-0.004-0.669-0.013l0.032 0.001zM362.619 870.117h25.576v-25.576h-25.576v25.576z" />
<glyph unicode="&#xe92f;" glyph-name="cloud1" horiz-adv-x="908" d="M491.913-64l-170.225 264.795h340.451zM839.173 654.843c2.735 13.802 4.33 29.696 4.388 45.951v0.047c-0.092 143.248-116.238 259.337-259.499 259.337-111.653 0-206.836-70.514-243.445-169.439l-0.582-1.797c-14.175 5.789-30.624 9.148-47.857 9.148-60.89 0-111.984-41.943-125.965-98.514l-0.186-0.891c-94.713-14.216-166.507-95.015-166.507-192.583 0-107.488 87.136-194.624 194.624-194.624 0.209 0 0.417 0 0.626 0.001h162.174c17.915 0 32.437 14.523 32.437 32.437s-14.523 32.437-32.437 32.437h-162.206c-71.659 0-129.75 58.091-129.75 129.75s58.091 129.75 129.75 129.75v0c17.904 0 32.418 14.514 32.418 32.418v0c0 0.008 0 0.018 0 0.028 0 35.829 29.045 64.875 64.875 64.875 17.696 0 33.737-7.085 45.441-18.573l-0.010 0.010c5.851-5.777 13.895-9.346 22.773-9.346 16.075 0 29.417 11.7 31.976 27.049l0.026 0.189c16.94 91.542 96.158 159.955 191.353 159.955 107.384 0 194.435-87.052 194.435-194.435 0-10.327-0.805-20.466-2.356-30.357l0.142 1.098q-1.589-9.457-4.085-18.914c-0.74-2.583-1.166-5.551-1.166-8.617 0-11.253 5.734-21.167 14.439-26.98l0.118-0.074c35.17-23.582 58.009-63.18 58.009-108.112 0-71.546-57.908-129.566-129.411-129.749h-97.121c-17.915 0-32.437-14.523-32.437-32.437s14.523-32.437 32.437-32.437h97.293c107.392 0.128 194.4 87.215 194.4 194.624 0 59.441-26.647 112.659-68.648 148.358l-0.277 0.23z" />
<glyph unicode="&#xe930;" glyph-name="development1" d="M1023.38 751.735c-0.241 0.725-0.478 1.314-0.745 1.885l0.045-0.106c-0.269 0.892-0.562 1.642-0.905 2.364l0.043-0.101c-0.369 0.603-0.742 1.122-1.149 1.612l0.018-0.022c-0.46 0.719-0.939 1.344-1.466 1.925l0.011-0.012c-0.482 0.453-1 0.886-1.543 1.287l-0.047 0.033c-0.485 0.458-0.97 0.862-1.509 1.266l-307.292 195.466c-2.595 1.677-5.766 2.674-9.17 2.674-3.297 0-6.375-0.935-8.984-2.555l0.073 0.042-307.184-188.622c-0.632-0.45-1.186-0.9-1.709-1.384l0.011 0.010c-0.576-0.408-1.077-0.806-1.555-1.229l0.019 0.016c-0.532-0.58-1.028-1.213-1.474-1.883l-0.035-0.057c-0.377-0.539-0.808-0.997-1.132-1.563-0.384-0.716-0.749-1.563-1.043-2.441l-0.034-0.119c-0.216-0.485-0.431-0.97-0.593-1.482-0.376-1.314-0.593-2.823-0.593-4.382 0-0.013 0-0.026 0-0.039v0.002-203.873h34.141v173.289l273.043-167.658v-329.953c0-0.005 0-0.011 0-0.016 0-9.42 7.637-17.057 17.057-17.057 3.211 0 6.216 0.888 8.781 2.431l-0.077-0.043 307.184 181.75c5.062 3.017 8.401 8.461 8.407 14.685v339.601c0 0.512 0 1.051-0.216 1.563-0.051 0.986-0.176 1.911-0.371 2.808l0.021-0.114zM699.867 585.478l-8.623 5.389-266.118 163.4 274.418 168.466 274.849-174.798zM989.806 417.524l-273.043-161.676v299.989l273.043 161.676zM614.368-29.833h-529.030c-28.275 0-51.197 22.922-51.197 51.197s22.922 51.197 51.197 51.197h34.114c9.42 0 17.057 7.637 17.057 17.057v0 392.522h375.465v-85.338c0-9.42 7.637-17.057 17.057-17.057v0h85.338v-187.732h34.141v204.789c0 0.377-0.189 0.701-0.216 1.078-0.090 1.599-0.399 3.097-0.897 4.505l0.035-0.113c-0.189 0.539-0.323 1.078-0.566 1.617-0.873 1.941-2.024 3.601-3.423 5.013l-102.394 102.394c-1.413 1.386-3.073 2.527-4.905 3.352l-0.107 0.043c-0.485 0.216-0.997 0.35-1.536 0.539-1.342 0.475-2.895 0.793-4.508 0.887l-0.046 0.002c-0.269 0-0.539 0.135-0.889 0.135h-392.522v85.338c0 9.42-7.637 17.057-17.057 17.057h-34.141c-47.103-0.046-85.277-38.21-85.338-85.305v-511.979c0.046-47.112 38.226-85.292 85.333-85.338h546.091c9.42 0 17.057 7.637 17.057 17.057v34.141h-34.114zM546.087 457.889l44.137-44.137h-44.137zM34.114 499.090v34.248c0 28.275 22.922 51.197 51.197 51.197h17.084v-477.833h-17.057c-0.051 0-0.111 0-0.171 0-19.249 0-37-6.409-51.237-17.21l0.211 0.153zM938.608 157.846h-409.578c-9.42 0-17.057-7.637-17.057-17.057v0-102.395c0-9.42 7.637-17.057 17.057-17.057v0h409.578c9.42 0 17.057 7.637 17.057 17.057v0 102.395c0 9.42-7.637 17.057-17.057 17.057v0zM921.552 55.451h-375.438v68.308h34.141v-34.141h34.141v34.141h34.141v-34.141h34.141v34.141h34.141v-34.141h34.141v34.141h34.141v-34.141h34.141v34.141h34.141v-34.141h34.141v34.141h34.141zM477.833 291.282c0 0.485-0.162 0.97-0.189 1.455-0.072 1.005-0.206 1.926-0.401 2.825l0.024-0.131c-0.836 2.184-1.39 3.5-1.965 4.804l0.321-0.816c-0.404 0.652-0.795 1.206-1.215 1.736l0.029-0.038c-0.467 0.667-0.927 1.246-1.418 1.798l0.017-0.020c-0.516 0.514-1.070 0.991-1.657 1.427l-0.040 0.029c-0.392 0.372-0.814 0.725-1.257 1.052l-0.037 0.026-136.535 88.437c-2.621 1.725-5.835 2.751-9.289 2.751-3.348 0-6.47-0.964-9.105-2.631l0.070 0.041-136.535-85.338c-0.539-0.35-0.97-0.808-1.482-1.213-0.599-0.437-1.127-0.879-1.623-1.353l0.006 0.006c-0.547-0.587-1.053-1.23-1.502-1.912l-0.034-0.055c-0.376-0.445-0.74-0.938-1.071-1.453l-0.034-0.056c-0.384-0.744-0.758-1.635-1.065-2.557l-0.040-0.137c-0.162-0.485-0.431-0.916-0.566-1.428-0.381-1.313-0.606-2.824-0.62-4.384v-136.543c0.013-6.084 3.21-11.419 8.012-14.428l0.071-0.042 136.535-85.338h0.269c0.111-0.091 0.234-0.18 0.363-0.261l0.015-0.009c0.759-0.397 1.652-0.763 2.58-1.048l0.115-0.030c0.431-0.135 0.808-0.377 1.213-0.485 1.328-0.388 2.854-0.611 4.433-0.611s3.104 0.223 4.548 0.64l-0.116-0.029c0.431 0 0.862 0.35 1.32 0.512 1.052 0.309 1.946 0.657 2.802 1.071l-0.108-0.047 0.269 0.189h0.243l136.535 82.212c4.975 3.032 8.251 8.42 8.272 14.575v0.003zM307.184 103.254l-102.395 63.997v96.251l102.395-63.997zM324.429 228.983l-104.496 65.398 104.092 65.074 104.496-67.661-67.634-40.742zM443.719 164.313l-102.395-61.679v96.79l102.395 61.652zM511.973 294.381h68.254v-34.087h-68.254zM511.973 226.127h68.254v-34.087h-68.254zM170.676 55.451h34.141v-34.087h-34.141zM170.676 430.889h34.141v-34.087h-34.141zM537.060 786.684l81.916 51.197 18.081-28.913-81.916-51.197zM646.272 854.965l27.296 17.057 18.081-28.94-27.296-17.057zM443.692 635.679h34.141v-85.284h-34.141zM443.692 55.451h34.141v-34.087h-34.141zM443.692 430.889h34.141v-34.087h-34.141z" />
<glyph unicode="&#xe931;" glyph-name="email1" horiz-adv-x="1490" d="M987.319 440.358l502.122-317.451v648.62zM0 770.931v-648.62l502.122 317.451zM1396.398 960h-1303.354c-45.98-0.394-83.879-34.484-90.227-78.759l-0.058-0.492 741.962-488.851 741.962 488.851c-6.406 44.767-44.305 78.857-90.244 79.251h-0.041zM902.104 384.144l-131.737-86.781c-7.217-4.788-16.080-7.639-25.609-7.639s-18.392 2.851-25.783 7.747l0.174-0.108-131.737 86.855-584.429-369.639c6.64-44.462 44.392-78.227 90.099-78.58h1303.317c45.744 0.353 83.496 34.118 90.074 78.076l0.062 0.504z" />
<glyph unicode="&#xe932;" glyph-name="facebook-app-logo1" d="M967.456 960.032h-910.944c-31.211 0-56.512-25.301-56.512-56.512 0-0.011 0-0.023 0-0.034v0.002-910.944c0.018-31.203 25.309-56.494 56.51-56.512h490.434v396.512h-133.44v154.56h133.44v113.984c0 132.256 80.736 204.288 198.752 204.288 0.99 0.003 2.161 0.005 3.333 0.005 40.825 0 81.133-2.21 120.812-6.518l-4.913 0.433v-138.24h-81.856c-64 0-76.544-30.496-76.544-75.232v-98.656h153.056l-20-154.56h-133.088v-396.576h260.928c31.224 0 56.54 25.293 56.576 56.509v910.979c0 31.211-25.301 56.512-56.512 56.512-0.011 0-0.023 0-0.034 0h0.002z" />
<glyph unicode="&#xe933;" d="M1024 448c0-282.77-229.23-512-512-512s-512 229.23-512 512c0 282.77 229.23 512 512 512s512-229.23 512-512z" />
<glyph unicode="&#xe934;" d="M335.078 408.397h-64.768c-7.168 0-12.979-5.811-12.979-12.979v0-192.563h90.726v192.563c0 7.168-5.811 12.979-12.979 12.979v0z" />
<glyph unicode="&#xe935;" d="M300.595 408.397h-30.285c-7.168 0-12.979-5.811-12.979-12.979v0-192.563h30.31v192.563c0 0 0 0 0 0 0 7.159 5.796 12.965 12.952 12.979h0.001z" />
<glyph unicode="&#xe936;" d="M472.166 459.187h-64.768c-7.168 0-12.979-5.811-12.979-12.979v0-243.379h90.726v243.379c0 7.168-5.811 12.979-12.979 12.979v0z" />
<glyph unicode="&#xe937;" d="M437.709 459.187h-30.31c-7.168 0-12.979-5.811-12.979-12.979v0-243.379h30.31v243.379c0 7.168 5.811 12.979 12.979 12.979v0z" />
<glyph unicode="&#xe938;" d="M609.254 510.003h-64.768c-7.168 0-12.979-5.811-12.979-12.979v0-294.17h90.726v294.17c0 7.168-5.811 12.979-12.979 12.979v0z" />
<glyph unicode="&#xe939;" d="M574.797 510.003h-30.31c-7.168 0-12.979-5.811-12.979-12.979v0-294.17h30.31v294.17c0 7.168 5.811 12.979 12.979 12.979v0z" />
<glyph unicode="&#xe93a;" d="M746.368 560.794h-64.768c-7.168 0-12.979-5.811-12.979-12.979v0-344.96h90.726v344.96c0 7.168-5.811 12.979-12.979 12.979v0z" />
<glyph unicode="&#xe93b;" d="M711.91 560.794h-30.31c-7.168 0-12.979-5.811-12.979-12.979v0-344.96h30.31v344.96c0 7.168 5.811 12.979 12.979 12.979v0z" />
<glyph unicode="&#xe93c;" d="M736 699.904l-81.946 2.867c-0.043 0.001-0.095 0.001-0.146 0.001-4.553 0-8.243-3.691-8.243-8.243 0-1.698 0.513-3.276 1.394-4.588l-0.019 0.030 13.21-19.021c-109.323-63.902-240.696-101.632-380.881-101.632-0.035 0-0.069 0-0.104 0h0.006v-54.554c111.065 0.387 216.884 22.393 313.614 62.026l-5.569-2.019c40.445 16.079 74.678 33.264 107.205 52.982l-3.166-1.782 11.725-16.87c1.51-2.137 3.971-3.516 6.753-3.516 3.612 0 6.682 2.324 7.796 5.558l0.017 0.058 25.882 77.824c0.265 0.773 0.418 1.664 0.418 2.591 0 4.447-3.522 8.072-7.929 8.237h-0.015z" />
<glyph unicode="&#xe93d;" glyph-name="Group-1199" d="M192 864c0-53.019-42.981-96-96-96s-96 42.981-96 96c0 53.019 42.981 96 96 96s96-42.981 96-96zM608 864c0-53.019-42.981-96-96-96s-96 42.981-96 96c0 53.019 42.981 96 96 96s96-42.981 96-96zM1024 864c0-53.019-42.981-96-96-96s-96 42.981-96 96c0 53.019 42.981 96 96 96s96-42.981 96-96zM192 448c0-53.019-42.981-96-96-96s-96 42.981-96 96c0 53.019 42.981 96 96 96s96-42.981 96-96zM608 448c0-53.019-42.981-96-96-96s-96 42.981-96 96c0 53.019 42.981 96 96 96s96-42.981 96-96zM1024 448c0-53.019-42.981-96-96-96s-96 42.981-96 96c0 53.019 42.981 96 96 96s96-42.981 96-96zM192 32c0-53.019-42.981-96-96-96s-96 42.981-96 96c0 53.019 42.981 96 96 96s96-42.981 96-96zM608 32c0-53.019-42.981-96-96-96s-96 42.981-96 96c0 53.019 42.981 96 96 96s96-42.981 96-96zM1024 32c0-53.019-42.981-96-96-96s-96 42.981-96 96c0 53.019 42.981 96 96 96s96-42.981 96-96z" />
<glyph unicode="&#xe93f;" glyph-name="instagram1" d="M512 656c-115.989 0-210.016-94.027-210.016-210.016s94.027-210.016 210.016-210.016c115.989 0 210.016 94.027 210.016 210.016v0c-0.127 115.937-94.079 209.889-210.004 210.016h-0.012zM512 656c-115.989 0-210.016-94.027-210.016-210.016s94.027-210.016 210.016-210.016c115.989 0 210.016 94.027 210.016 210.016v0c-0.127 115.937-94.079 209.889-210.004 210.016h-0.012zM874.016 960h-724c-82.844-0.018-149.998-67.172-150.016-150.014v-724.002c0.036-82.83 67.183-149.966 150.014-149.984h724.002c82.819 0.036 149.947 67.165 149.984 149.98v724.004c-0.018 82.833-67.153 149.979-149.98 150.016h-0.004zM512 176c-149.126 0-270.016 120.89-270.016 270.016s120.89 270.016 270.016 270.016c149.126 0 270.016-120.89 270.016-270.016 0-0.011 0-0.023 0-0.034v0.002c-0.237-149.024-120.989-269.766-269.995-269.984h-0.021zM842.016 716c-33.137 0-60 26.863-60 60s26.863 60 60 60c33.137 0 60-26.863 60-60v0c-0.109-33.093-26.907-59.891-59.99-60h-0.010zM512 656c-115.989 0-210.016-94.027-210.016-210.016s94.027-210.016 210.016-210.016c115.989 0 210.016 94.027 210.016 210.016v0c-0.127 115.937-94.079 209.889-210.004 210.016h-0.012zM512 656c-115.989 0-210.016-94.027-210.016-210.016s94.027-210.016 210.016-210.016c115.989 0 210.016 94.027 210.016 210.016v0c-0.127 115.937-94.079 209.889-210.004 210.016h-0.012zM512 656c-115.989 0-210.016-94.027-210.016-210.016s94.027-210.016 210.016-210.016c115.989 0 210.016 94.027 210.016 210.016v0c-0.127 115.937-94.079 209.889-210.004 210.016h-0.012z" />
<glyph unicode="&#xe940;" glyph-name="left-quote-21" horiz-adv-x="1226" d="M833.727 400.065c26.831-8.235 57.695-13.089 89.657-13.327l0.127-0.001c0.258-0.001 0.564-0.001 0.87-0.001 40.381 0 78.78 8.484 113.512 23.768l-1.809-0.71c-28.299-103.599-96.269-282.322-231.677-302.447-12.658-1.929-22.778-11.007-26.199-22.919l-0.056-0.227-29.587-105.643c-0.751-2.591-1.183-5.567-1.183-8.644 0-16.238 12.033-29.666 27.669-31.852l0.169-0.019c9.085-1.301 19.577-2.044 30.242-2.044 0.020 0 0.039 0 0.059 0h-0.003c162.552 0 323.504 169.66 391.43 412.577 39.983 142.516 51.578 356.778-46.646 491.609-53.965 73.080-139.781 119.953-236.544 119.953-0.616 0-1.232-0.002-1.847-0.006h-1.282c-157.252-0.382-284.582-127.948-284.582-285.253 0-129.92 86.855-239.553 205.667-274.004l2.015-0.5zM36.828 534.762c37.22-65.087 97.503-113.396 169.462-134.197l2.019-0.5c26.831-8.235 57.695-13.089 89.657-13.327l0.127-0.001c0.253-0.001 0.552-0.001 0.852-0.001 40.387 0 78.792 8.484 113.531 23.768l-1.809-0.71c-28.299-103.599-96.269-282.322-231.677-302.447-12.653-1.94-22.768-11.013-26.199-22.918l-0.056-0.227-29.498-105.643c-0.751-2.591-1.183-5.567-1.183-8.644 0-16.238 12.033-29.666 27.669-31.852l0.169-0.019c9.079-1.301 19.563-2.044 30.221-2.044 0.027 0 0.054 0 0.081 0h-0.004c162.552 0 323.504 169.66 391.43 412.577 39.983 142.516 51.533 356.778-46.691 491.653-53.965 73.080-139.781 119.953-236.544 119.953-0.616 0-1.232-0.002-1.847-0.006h-1.193c-157.471-0.093-285.091-127.77-285.091-285.254 0-51.444 13.618-99.707 37.446-141.382l-0.736 1.398z" />
<glyph unicode="&#xe941;" glyph-name="linkedin-11" d="M950.144 960h-876.288c-40.79 0-73.856-33.066-73.856-73.856v0-876.288c0-40.79 33.066-73.856 73.856-73.856v0h876.288c40.79 0 73.856 33.066 73.856 73.856v0 876.288c0 40.79-33.066 73.856-73.856 73.856v0zM363.232 185.984h-124.8v375.168h124.8zM300.8 612.384h-0.736c-1.164-0.074-2.524-0.117-3.893-0.117-35.894 0-64.992 29.098-64.992 64.992s29.098 64.992 64.992 64.992c1.945 0 3.87-0.085 5.772-0.253l-0.246 0.017c1.415 0.11 3.065 0.172 4.729 0.172 35.912 0 65.024-29.112 65.024-65.024s-29.112-65.024-65.024-65.024c-1.98 0-3.94 0.089-5.875 0.262l0.25-0.018zM812.8 186.016h-124.8v200.672c0 50.432-18.048 84.832-63.168 84.832-29.422-0.172-54.418-18.933-63.85-45.124l-0.15-0.476c-2.657-7.889-4.19-16.975-4.19-26.419 0-1.412 0.034-2.815 0.102-4.21l-0.008 0.197v-209.504h-124.8s1.632 339.968 0 375.136h124.8v-53.12c21.789 37.336 61.657 62.025 107.291 62.025 1.791 0 3.574-0.038 5.347-0.113l-0.253 0.009c82.048 0 143.552-53.632 143.552-168.832z" />
<glyph unicode="&#xe942;" glyph-name="monitor1" horiz-adv-x="1152" d="M1050.327 960h-949.12c-55.867-0.071-101.136-45.341-101.207-101.201v-625.877c0.071-55.867 45.341-101.136 101.201-101.207h340.724v-128.348h-50.776c-0.306 0.010-0.666 0.016-1.028 0.016-18.638 0-33.746-15.109-33.746-33.746s15.109-33.746 33.746-33.746c0.361 0 0.721 0.006 1.080 0.017l-0.052-0.001h369.393c0.306-0.010 0.666-0.016 1.028-0.016 18.638 0 33.746 15.109 33.746 33.746s-15.109 33.746-33.746 33.746c-0.361 0-0.721-0.006-1.080-0.017l0.052 0.001h-50.932v128.348h340.718c55.867 0.071 101.136 45.341 101.207 101.201v625.877c-0.071 55.867-45.341 101.136-101.201 101.207h-0.007zM642.148 3.461h-132.731v128.348h132.731zM1084.073 232.923c-0.018-18.63-15.116-33.728-33.744-33.746h-949.121c-18.63 0.018-33.728 15.116-33.746 33.744v51.279h1016.612zM1084.073 351.692h-1016.612v507.132c0.036 18.617 15.127 33.697 33.744 33.715h949.121c18.63-0.018 33.728-15.116 33.746-33.744v-0.002zM409.932 535.95l-91.378 62.39 91.378 62.39c9.392 6.096 15.516 16.532 15.516 28.399 0 18.638-15.109 33.746-33.746 33.746-7.442 0-14.321-2.409-19.9-6.489l0.095 0.066-132.199-90.251c-8.928-6.162-14.705-16.337-14.705-27.861s5.777-21.699 14.592-27.787l0.113-0.074 132.199-90.251c5.484-4.014 12.363-6.423 19.805-6.423 18.638 0 33.746 15.109 33.746 33.746 0 11.866-6.125 22.302-15.385 28.319l-0.131 0.080zM911.805 626.232l-132.199 90.251c-5.484 4.014-12.363 6.423-19.805 6.423-18.638 0-33.746-15.109-33.746-33.746 0-11.866 6.125-22.302 15.385-28.319l0.131-0.080 91.378-62.39-91.378-62.39c-9.392-6.096-15.516-16.532-15.516-28.399 0-18.638 15.109-33.746 33.746-33.746 7.442 0 14.321 2.409 19.9 6.489l-0.095-0.066 132.199 90.251c8.928 6.162 14.705 16.337 14.705 27.861s-5.777 21.699-14.592 27.787l-0.113 0.074zM660.023 748.225c-4.761 2.726-10.465 4.333-16.544 4.333-12.557 0-23.512-6.859-29.324-17.034l-0.087-0.166-135.423-241.044c-2.968-4.922-4.724-10.866-4.724-17.219 0-18.638 15.109-33.746 33.746-33.746 12.841 0 24.007 7.172 29.71 17.729l0.088 0.179 135.423 241.044c2.718 4.755 4.32 10.45 4.32 16.52 0 12.552-6.853 23.503-17.021 29.317l-0.165 0.087z" />
<glyph unicode="&#xe943;" glyph-name="Page-11" d="M424.048 360.048c-64.382 60.656-109.213 141.424-124.432 232.229l-0.335 2.42c-0.183 1.345-0.287 2.9-0.287 4.48 0 9.727 3.953 18.53 10.341 24.891l79.386 79.386c6.393 6.393 10.347 15.224 10.347 24.98 0 6.949-2.006 13.429-5.471 18.893l0.085-0.144-126.156 195.221c-6.349 10.024-17.38 16.582-29.943 16.582-5.773 0-11.223-1.385-16.035-3.841l0.2 0.093-202.167-95.196c-11.686-5.869-19.565-17.76-19.565-31.492 0-1.257 0.066-2.499 0.195-3.722l-0.013 0.152c29.272-234.401 137.712-439.235 297.27-590.754l0.424-0.399c151.908-160 356.748-268.446 586.364-297.204l4.79-0.489c1.061-0.114 2.292-0.179 3.538-0.179 13.756 0 25.666 7.908 31.431 19.425l0.092 0.203 94.865 202.233c2.342 4.594 3.714 10.020 3.714 15.766 0 12.521-6.514 23.521-16.339 29.795l-0.142 0.085-195.552 125.693c-5.32 3.379-11.8 5.385-18.748 5.385-9.755 0-18.587-3.954-24.98-10.347l-79.385-79.385c-6.362-6.389-15.166-10.342-24.893-10.342-1.579 0-3.134 0.104-4.659 0.306l0.179-0.019c-93.081 15.82-173.65 60.809-233.911 125.071l-0.208 0.225zM812.241 412.971c-19.51 0-35.326 15.816-35.326 35.326v0c-0.3 146.022-118.594 264.316-264.587 264.617h-0.029c-19.51 0-35.326 15.816-35.326 35.326s15.816 35.326 35.326 35.326v0c185.017-0.489 334.826-150.531 334.938-335.589v-0.011c-0.185-19.253-15.743-34.81-34.978-34.995h-0.018zM988.806 412.707c-19.51 0-35.326 15.816-35.326 35.326v0c-0.301 243.647-197.734 441.079-441.351 441.38h-0.029c-19.51 0-35.326 15.816-35.326 35.326s15.816 35.326 35.326 35.326v0c282.667-0.301 511.732-229.366 512.033-512.003v-0.030c0-19.51-15.816-35.326-35.326-35.326v0z" />
<glyph unicode="&#xe944;" glyph-name="paint-palette1" d="M302.003 118.021c0 0.011 0 0.024 0 0.037 0 34.571-14.66 65.719-38.102 87.565l-0.071 0.066v0.171c2.133 29.384 3.84 60.332 5.149 92.276 52.344-5.837 97.786-31.485 129.347-69.157l0.249-0.306c14.811-22.371 23.629-49.834 23.629-79.357 0-11.572-1.355-22.828-3.915-33.617l0.197 0.985c-1.719-6.588-2.706-14.151-2.706-21.944 0-43.144 30.243-79.225 70.687-88.198l0.601-0.112c26.028-5.272 55.958-8.305 86.592-8.334h0.024c247.913 1.599 448.487 202.013 450.344 449.712l0.001 0.178c0 253.163-220.195 459.846-450.231 451.597-122.698-8.552-232.41-58.133-316.909-134.957l0.427 0.383q-1.508 13.938-3.129 27.108c-4.454 40.899-11.509 77.677-21.23 113.356l1.176-5.065c-5.205 17.835-17.465 59.593-52.083 59.593s-46.963-41.758-52.197-59.593c-8.54-30.593-15.595-67.351-19.761-104.98l-0.293-3.254c-11.383-97.152-17.878-209.702-17.878-323.769 0-7.179 0.026-14.351 0.077-21.518l-0.006 1.1c0-84.625 2.845-168.367 8.164-242.154v-0.171c-23.497-21.91-38.145-53.047-38.145-87.604 0-0.012 0-0.025 0-0.037v0.002-62.011c-1.013-33.361-28.3-60.020-61.813-60.020-0.069 0-0.139 0-0.208 0h0.011v-60.019h122.002c99.608 0.917 180.002 81.878 180.002 181.616 0 0.153 0 0.305-0.001 0.458v-0.024zM575.959 839.62c193.428 6.941 388.107-169.534 388.050-391.606-1.709-215.495-176.797-389.527-392.533-389.527-25.828 0-51.073 2.494-75.507 7.255l2.477-0.402c-13.121 3.658-22.587 15.503-22.587 29.559 0 3.091 0.458 6.075 1.309 8.888l-0.056-0.217c3.377 13.851 5.314 29.753 5.314 46.107 0 42.477-13.067 81.902-35.402 114.474l0.447-0.691c-35.244 49.466-94.552 81.439-176.503 95.235 0.683 29.384 1.052 91.537 1.052 92.646 16.599-19.179 40.977-31.241 68.172-31.241 49.706 0 90.001 40.295 90.001 90.001s-40.295 90.001-90.001 90.001c-28.178 0-53.332-12.95-69.834-33.222l-0.13-0.164c-1.337 42.668-3.385 83.487-6.116 121.717 78.821 85.159 187.965 141.264 310.171 151.078l1.674 0.108zM311.191 517.876c3.542 12.914 15.175 22.245 28.988 22.245 16.574 0 30.010-13.436 30.010-30.010s-13.436-30.010-30.010-30.010c-2.763 0-5.438 0.373-7.978 1.072l0.211-0.049c-12.914 3.531-22.248 15.159-22.248 28.967 0 2.769 0.375 5.45 1.078 7.995l-0.050-0.211zM166.376 759.12c3.896 39.741 9.425 74.893 16.803 109.358l-1.13-6.301c6.234-28.176 11.743-63.331 15.295-99.062l0.321-3.995c9.154-88.739 14.374-191.743 14.374-295.967 0-5.334-0.014-10.665-0.041-15.992l0.003 0.826q0-15.019 0-30.010h-59.735q0 14.962 0 30.010c-0.032 5.168-0.050 11.277-0.050 17.391 0 103.44 5.142 205.679 15.185 306.476l-1.027-12.733zM153.092 358.042h57.829c-1.024-42.355-2.845-83.572-5.205-122.315-7.128 1.503-15.318 2.364-23.709 2.364s-16.581-0.861-24.487-2.498l0.778 0.135c-2.418 38.828-4.181 80.016-5.205 122.315zM122.002 56.010v62.011c0 33.14 26.865 60.005 60.005 60.005s60.005-26.865 60.005-60.005v0c0.002-0.264 0.003-0.575 0.003-0.887 0-66.509-53.595-120.501-119.953-121.142h-16.559c10.364 17.080 16.498 37.724 16.498 59.8 0 0.077 0 0.154 0 0.231v-0.012zM805.341 554.058c16.283 16.286 26.355 38.784 26.355 63.634 0 49.706-40.295 90.001-90.001 90.001s-90.001-40.295-90.001-90.001c0-24.85 10.071-47.348 26.355-63.634v0c16.281-16.304 38.786-26.39 63.646-26.39s47.365 10.086 63.645 26.389l0.001 0.001zM720.489 638.91c5.431 5.431 12.933 8.79 21.22 8.79 16.574 0 30.010-13.436 30.010-30.010s-13.436-30.010-30.010-30.010c-8.287 0-15.789 3.359-21.22 8.79v0c-5.424 5.434-8.778 12.935-8.778 21.22s3.354 15.786 8.778 21.221v0zM533.177 592.886c38.725 10.626 66.707 45.512 66.707 86.934 0 49.706-40.295 90.001-90.001 90.001s-90.001-40.295-90.001-90.001c0-8.287 1.12-16.313 3.217-23.934l-0.148 0.632c10.68-38.713 45.581-66.673 87.012-66.673 8.255 0 16.25 1.11 23.845 3.189l-0.632-0.147zM502.115 708.8c2.33 0.649 5.005 1.023 7.768 1.023 16.574 0 30.010-13.436 30.010-30.010s-13.436-30.010-30.010-30.010c-13.813 0-25.446 9.332-28.939 22.035l-0.049 0.211c-0.645 2.323-1.015 4.99-1.015 7.744 0 13.814 9.325 25.451 22.025 28.957l0.211 0.050zM547.201 192.86c10.626-38.725 45.512-66.707 86.934-66.707 49.706 0 90.001 40.295 90.001 90.001s-40.295 90.001-90.001 90.001c-8.287 0-16.313-1.12-23.934-3.217l0.632 0.148c-38.713-10.68-66.673-45.581-66.673-87.012 0-8.255 1.11-16.25 3.189-23.845l-0.147 0.632zM626.364 245.143c2.33 0.649 5.005 1.023 7.768 1.023 16.574 0 30.010-13.436 30.010-30.010s-13.436-30.010-30.010-30.010c-13.813 0-25.446 9.332-28.939 22.035l-0.049 0.211c-0.653 2.335-1.028 5.016-1.028 7.784 0 13.808 9.335 25.436 22.038 28.918l0.21 0.049zM716.905 409.158c-1.949-6.989-3.069-15.015-3.069-23.302 0-49.706 40.295-90.001 90.001-90.001s90.001 40.295 90.001 90.001c0 41.422-27.983 76.308-66.075 86.786l-0.632 0.148c-6.963 1.931-14.958 3.041-23.213 3.041-41.431 0-76.332-27.96-86.863-66.040l-0.149-0.633zM832.82 378.096c-3.542-12.914-15.175-22.245-28.988-22.245-16.574 0-30.010 13.436-30.010 30.010s13.436 30.010 30.010 30.010c2.763 0 5.438-0.373 7.978-1.072l-0.211 0.049c12.91-3.533 22.241-15.159 22.241-28.965 0-2.759-0.373-5.431-1.070-7.968l0.049 0.21z" />
<glyph unicode="&#xe945;" glyph-name="pin-11" horiz-adv-x="704" d="M655.189 784.67c-59.887 103.643-169.215 172.851-294.902 175.324l-0.347 0.005c-5.232 0-10.509 0-15.741 0-126.044-2.451-235.389-71.647-294.402-173.613l-0.893-1.671c-30.706-51.579-48.857-113.734-48.857-180.128 0-63.157 16.424-122.478 45.234-173.924l-0.926 1.801 254.305-465.393c10.854-18.663 30.758-31.009 53.545-31.009s42.691 12.347 53.387 30.715l0.158 0.294 0.364 0.637 253.759 464.574c27.883 49.646 44.307 108.967 44.307 172.123 0 66.394-18.151 128.549-49.761 181.773l0.904-1.644zM352.024 495.972c-79.521 0-143.985 64.464-143.985 143.985s64.464 143.985 143.985 143.985c79.521 0 143.985-64.464 143.985-143.985v0c-0.104-79.479-64.506-143.882-143.975-143.985h-0.010z" />
<glyph unicode="&#xe946;" glyph-name="price-tag1" d="M917.345 960h-270.639c-0.15 0-0.327 0.001-0.504 0.001-52.87 0-100.718-21.503-135.276-56.24l-474.87-474.509c-22.539-22.505-36.482-53.613-36.482-87.977s13.943-65.473 36.48-87.976l281.241-281.241c22.494-22.474 53.558-36.373 87.869-36.373s65.375 13.899 87.87 36.374l474.717 474.861c34.745 34.543 56.249 82.372 56.249 135.224 0 0.198 0 0.397-0.001 0.595v-0.031 270.639c-0.041 58.887-47.767 106.614-106.651 106.655h-0.004zM789.345 618.691c-58.904 0-106.655 47.751-106.655 106.655s47.751 106.655 106.655 106.655c58.904 0 106.655-47.751 106.655-106.655v0c-0.041-58.887-47.767-106.614-106.651-106.655h-0.004z" />
<glyph unicode="&#xe947;" glyph-name="Repeat-Grid-4" horiz-adv-x="1365" d="M78.769 920.615c0-21.752-17.633-39.385-39.385-39.385s-39.385 17.633-39.385 39.385c0 21.752 17.633 39.385 39.385 39.385s39.385-17.633 39.385-39.385zM472.615 920.615c0-21.752-17.633-39.385-39.385-39.385s-39.385 17.633-39.385 39.385c0 21.752 17.633 39.385 39.385 39.385s39.385-17.633 39.385-39.385zM866.462 920.615c0-21.752-17.633-39.385-39.385-39.385s-39.385 17.633-39.385 39.385c0 21.752 17.633 39.385 39.385 39.385s39.385-17.633 39.385-39.385zM1260.308 920.615c0-21.752-17.633-39.385-39.385-39.385s-39.385 17.633-39.385 39.385c0 21.752 17.633 39.385 39.385 39.385s39.385-17.633 39.385-39.385zM78.769 526.769c0-21.752-17.633-39.385-39.385-39.385s-39.385 17.633-39.385 39.385c0 21.752 17.633 39.385 39.385 39.385s39.385-17.633 39.385-39.385zM472.615 526.769c0-21.752-17.633-39.385-39.385-39.385s-39.385 17.633-39.385 39.385c0 21.752 17.633 39.385 39.385 39.385s39.385-17.633 39.385-39.385zM866.462 526.769c0-21.752-17.633-39.385-39.385-39.385s-39.385 17.633-39.385 39.385c0 21.752 17.633 39.385 39.385 39.385s39.385-17.633 39.385-39.385zM1260.308 526.769c0-21.752-17.633-39.385-39.385-39.385s-39.385 17.633-39.385 39.385c0 21.752 17.633 39.385 39.385 39.385s39.385-17.633 39.385-39.385zM78.769 132.923c0-21.752-17.633-39.385-39.385-39.385s-39.385 17.633-39.385 39.385c0 21.752 17.633 39.385 39.385 39.385s39.385-17.633 39.385-39.385zM472.615 132.923c0-21.752-17.633-39.385-39.385-39.385s-39.385 17.633-39.385 39.385c0 21.752 17.633 39.385 39.385 39.385s39.385-17.633 39.385-39.385zM866.462 132.923c0-21.752-17.633-39.385-39.385-39.385s-39.385 17.633-39.385 39.385c0 21.752 17.633 39.385 39.385 39.385s39.385-17.633 39.385-39.385zM1260.308 132.923c0-21.752-17.633-39.385-39.385-39.385s-39.385 17.633-39.385 39.385c0 21.752 17.633 39.385 39.385 39.385s39.385-17.633 39.385-39.385z" />
<glyph unicode="&#xe948;" glyph-name="setting1" horiz-adv-x="977" d="M559.641-64h-141.935c-0.071 0-0.154 0-0.238 0-34.879 0-64.056 24.409-71.382 57.077l-0.092 0.488-18.056 79.925c-31.825 13.708-59.259 29.911-84.314 49.068l0.945-0.693-77.738-24.524c-6.629-2.153-14.258-3.395-22.176-3.395-27.275 0-51.109 14.73-63.982 36.668l-0.189 0.349-70.758 122.366c-6.107 10.58-9.71 23.271-9.71 36.803 0 21.378 8.993 40.656 23.402 54.257l0.036 0.034 60.241 55.378c-1.752 14.469-2.752 31.224-2.752 48.211s1 33.741 2.943 50.206l-0.192-1.995-59.962 55.122c-14.62 13.632-23.734 33.006-23.734 54.507 0 13.382 3.53 25.939 9.71 36.791l-0.192-0.367 71.177 123.088c13.030 22.13 36.735 36.747 63.854 36.747 7.942 0 15.591-1.254 22.76-3.574l-0.523 0.146 77.831-24.524c24.111 18.452 51.544 34.654 80.832 47.391l2.537 0.983 18.009 79.949c7.436 33.133 36.602 57.519 71.464 57.519 0.087 0 0.174 0 0.261 0h141.922c0.071 0 0.154 0 0.238 0 34.879 0 64.056-24.409 71.382-57.077l0.092-0.488 18.009-79.902c31.825-13.708 59.259-29.911 84.314-49.068l-0.945 0.693 77.738 24.524c6.642 2.165 14.285 3.413 22.219 3.413 27.267 0 51.091-14.739 63.939-36.685l0.189-0.35 70.735-122.366c6.107-10.58 9.71-23.271 9.71-36.803 0-21.378-8.993-40.656-23.402-54.257l-0.036-0.034-60.241-55.378c1.739-14.469 2.73-31.224 2.73-48.211s-0.992-33.742-2.921-50.211l0.191 2 60.241-55.378c14.48-13.617 23.498-32.898 23.498-54.286 0-13.396-3.537-25.965-9.729-36.825l0.192 0.366-71.177-123.088c-13.043-22.126-36.753-36.738-63.876-36.738-7.934 0-15.575 1.25-22.739 3.564l0.523-0.146-77.855 24.571c-24.124-18.446-51.573-34.641-80.876-47.368l-2.54-0.982-18.009-79.949c-7.389-33.139-36.542-57.542-71.394-57.542-0.071 0-0.142 0-0.212 0h0.011zM251.131 189.481c7.772-0.005 14.9-2.762 20.461-7.35l-0.055 0.044c27.082-22.676 58.532-41.322 92.73-54.412l2.25-0.757c10.114-3.815 17.671-12.31 20.108-22.772l0.042-0.217 21.709-96.422c0.982-4.325 4.762-7.516 9.3-7.585h141.943c4.532 0.084 8.3 3.256 9.294 7.496l0.013 0.066 21.709 96.422c2.464 10.705 10.049 19.22 19.976 22.94l0.221 0.072c36.471 13.859 67.942 32.503 95.571 55.592l-0.521-0.424c5.476 4.565 12.586 7.336 20.344 7.336 3.447 0 6.765-0.547 9.874-1.559l-0.225 0.063 93.91-29.643c0.953-0.351 2.053-0.554 3.201-0.554 3.412 0 6.404 1.795 8.084 4.493l0.023 0.040 71.177 123.041c0.735 1.388 1.166 3.033 1.166 4.78 0 2.974-1.251 5.656-3.255 7.548l-0.005 0.005-72.131 66.221c-6.349 5.834-10.314 14.178-10.314 23.447 0 1.727 0.138 3.423 0.403 5.075l-0.024-0.182c2.673 16.758 4.22 36.105 4.258 55.805v0.038c-0.017 19.722-1.564 39.070-4.53 57.947l0.272-2.104c-0.231 1.445-0.363 3.11-0.363 4.806 0 9.293 3.957 17.662 10.277 23.515l0.021 0.019 72.131 66.384c1.908 1.883 3.090 4.497 3.090 7.388 0 1.793-0.455 3.48-1.255 4.952l0.027-0.055-70.851 122.366c-1.719 2.9-4.833 4.813-8.394 4.813-1.161 0-2.275-0.204-3.308-0.577l-93.702-29.599c-2.883-0.948-6.202-1.495-9.649-1.495-7.757 0-14.868 2.771-20.395 7.377l0.051-0.042c-27.075 22.683-58.517 41.335-92.707 54.434l-2.249 0.757c-10.114 3.815-17.671 12.31-20.108 22.772l-0.042 0.217-21.732 96.446c-1.098 4.294-4.877 7.439-9.41 7.562h-141.831c-4.532-0.084-8.3-3.256-9.294-7.496l-0.013-0.066-21.709-96.469c-2.458-10.675-10.002-19.172-19.884-22.916l-0.22-0.073c-36.475-13.84-67.949-32.486-95.566-55.589l0.517 0.421c-5.488-4.557-12.606-7.322-20.369-7.322-3.437 0-6.747 0.542-9.85 1.545l0.226-0.063-93.956 29.643c-0.945 0.342-2.035 0.54-3.171 0.54-3.417 0-6.416-1.788-8.114-4.479l-0.023-0.040-71.177-122.994c-0.736-1.389-1.168-3.036-1.168-4.784 0-3.020 1.29-5.738 3.348-7.634l0.007-0.007 71.968-66.128c6.349-5.834 10.314-14.178 10.314-23.447 0-1.727-0.138-3.423-0.403-5.075l0.024 0.182c-2.664-16.696-4.21-35.976-4.258-55.609v-0.048c0.017-19.722 1.564-39.070 4.53-57.947l-0.272 2.104c0.231-1.445 0.363-3.11 0.363-4.806 0-9.293-3.957-17.662-10.277-23.515l-0.021-0.019-72.131-66.384c-1.9-1.882-3.076-4.491-3.076-7.375 0-1.902 0.511-3.684 1.404-5.216l-0.027 0.049 70.735-122.343c1.681-2.915 4.781-4.845 8.332-4.845 1.185 0 2.32 0.215 3.368 0.609l-0.066-0.022 93.77 29.62c2.843 0.945 6.117 1.489 9.518 1.489 0.041 0 0.081 0 0.121 0h-0.006zM456.657 277.341c-0.031 0-0.067 0-0.104 0-17.644 0-31.947 14.303-31.947 31.947 0 2.558 0.301 5.046 0.869 7.431l-0.044-0.217 64.010 277.331c3.376 14.32 16.046 24.814 31.167 24.814 17.662 0 31.981-14.318 31.981-31.981 0-2.541-0.296-5.013-0.857-7.384l0.043 0.217-64.010-277.284c-3.337-14.333-15.992-24.852-31.107-24.873h-0.002zM627.281 320.061c-0.031 0-0.068 0-0.105 0-17.669 0-31.993 14.324-31.993 31.993 0 9.463 4.108 17.966 10.638 23.823l0.030 0.026 80.158 72.131-80.251 72.131c-6.514 5.898-10.589 14.386-10.589 23.826 0 17.729 14.372 32.1 32.1 32.1 8.288 0 15.843-3.141 21.539-8.298l-0.027 0.024 106.66-96.004c6.509-5.891 10.582-14.372 10.582-23.803s-4.072-17.912-10.554-23.779l-0.027-0.024-106.66-96.004c-5.634-5.082-13.134-8.19-21.36-8.19-0.025 0-0.049 0-0.074 0h0.004zM349.95 320.061c-0.021 0-0.045 0-0.070 0-8.226 0-15.725 3.109-21.388 8.216l0.028-0.025-106.637 95.934c-6.509 5.891-10.582 14.372-10.582 23.803s4.072 17.912 10.554 23.779l0.027 0.024 106.66 96.004c5.649 5.097 13.17 8.215 21.418 8.215 17.689 0 32.029-14.34 32.029-32.029 0-9.441-4.085-17.928-10.583-23.79l-0.028-0.025-80.251-72.131 80.251-72.131c6.56-5.884 10.668-14.387 10.668-23.85 0-17.669-14.324-31.993-31.993-31.993-0.037 0-0.073 0-0.11 0h0.006z" />
<glyph unicode="&#xe949;" glyph-name="support1" horiz-adv-x="1020" d="M508.436 829.882c11.128 0 20.15 9.021 20.15 20.15v0 89.819c0.006 0.177 0.009 0.386 0.009 0.595 0 11.128-9.021 20.15-20.15 20.15s-20.15-9.021-20.15-20.15c0-0.209 0.003-0.418 0.010-0.626l-0.001 0.030v-89.837c0.010-11.115 9.017-20.122 20.131-20.132h0.001zM1000.788 268.036l-35.583 35.477c-12.191 12.115-28.992 19.603-47.542 19.603-11.828 0-22.945-3.045-32.611-8.393l0.346 0.176-67.048 66.977 3.273 3.256c12.602 12.644 20.393 30.089 20.393 49.353s-7.791 36.709-20.395 49.355l0.002-0.002c-9.306 9.333-21.26 16.020-34.639 18.838l-0.451 0.079c1.765 5.867 2.78 12.609 2.78 19.588 0 0.005 0 0.011 0 0.016v-0.001c0 0.031 0 0.067 0 0.103 0 33.473-23.576 61.439-55.028 68.2l-0.458 0.083c1.765 5.867 2.78 12.609 2.78 19.588 0 0.005 0 0.011 0 0.016v-0.001c0 0.016 0 0.035 0 0.055 0 33.459-23.58 61.41-55.029 68.143l-0.457 0.082c1.798 5.89 2.833 12.66 2.833 19.672 0 38.497-31.208 69.705-69.705 69.705-2.691 0-5.346-0.152-7.957-0.449l0.32 0.030-132.864 25.147c-20.273 3.836-45.578 6.388-61.592-8.183-1.078-0.991-2.072-2.019-3.004-3.102l-0.040-0.048c-7.155 2.7-15.425 4.262-24.060 4.262-19.293 0-36.763-7.8-49.43-20.419l0.002 0.002c-12.61-12.552-20.414-29.924-20.414-49.119 0-0.092 0-0.183 0.001-0.275v0.014c0-0.005 0-0.010 0-0.015 0-6.979 1.016-13.722 2.908-20.087l-0.127 0.498c-31.89-6.848-55.451-34.792-55.468-68.242v-0.002c0-0.027 0-0.059 0-0.091 0-6.972 1.016-13.706 2.907-20.063l-0.127 0.497c-31.917-6.879-55.487-34.864-55.487-68.354 0-14.732 4.561-28.399 12.348-39.666l-0.152 0.233c-27.751-9.646-47.313-35.575-47.313-66.074 0-19.299 7.833-36.768 20.493-49.402l0.001-0.001 3.256-3.238-67.065-66.872c-8.402 4.050-18.269 6.416-28.688 6.416-18.542 0-35.334-7.493-47.513-19.617l0.003 0.002-35.548-35.583c-12.136-12.171-19.64-28.966-19.64-47.514s7.504-35.343 19.642-47.516l-0.002 0.002 44.435-44.382c3.67-3.799 8.809-6.157 14.499-6.157 11.128 0 20.15 9.021 20.15 20.15 0 5.699-2.366 10.845-6.169 14.51l-0.006 0.006-44.435 44.382c-4.832 4.879-7.817 11.594-7.817 19.006s2.985 14.127 7.819 19.008l-0.002-0.002 35.6 35.512c4.874 4.852 11.596 7.851 19.018 7.851 5.109 0 9.885-1.421 13.957-3.889l-0.12 0.068c0.778-1.16 1.612-2.173 2.534-3.098v0c1.634-1.633 3.55-2.985 5.667-3.978l0.123-0.052 204.135-203.888c1.998-4.351 5.39-7.777 9.594-9.768l0.12-0.051c4.16-4.721 6.7-10.957 6.7-17.787 0-7.41-2.989-14.121-7.828-18.994l-35.563-35.528c-4.888-4.84-11.615-7.83-19.041-7.83s-14.153 2.99-19.043 7.833l-44.433 44.433c-3.618 3.491-8.549 5.642-13.983 5.642-11.128 0-20.15-9.021-20.15-20.15 0-5.434 2.151-10.365 5.648-13.989l44.464-44.464c12.186-12.102 28.977-19.582 47.514-19.582s35.328 7.48 47.518 19.586l-0.004-0.004 35.6 35.548c12.137 12.179 19.641 28.981 19.641 47.537 0 13.208-3.802 25.528-10.372 35.925l0.163-0.277 75.723 75.635c8.641 8.94 32.714 7.268 55.979 5.649 8.518-0.889 18.405-1.396 28.41-1.396 8.652 0 17.215 0.379 25.673 1.122l-1.096-0.078 82.71-82.551c-5.17-9.305-8.213-20.408-8.213-32.221 0-18.547 7.501-35.342 19.636-47.517l-0.002 0.002 35.6-35.548c12.177-12.123 28.97-19.618 47.514-19.618s35.338 7.495 47.517 19.621l-0.002-0.002 215.89 215.626c12.14 12.169 19.647 28.965 19.647 47.514s-7.507 35.345-19.649 47.515l0.001-0.001zM466.254 753.138l87.373-16.542-52.301-52.283c-12.037 6.266-22.368 13.862-31.367 22.797l0.007-0.007c-13.946 11.736-24.312 27.313-29.489 45.1l-0.163 0.655c-0.057 0.531-0.089 1.147-0.089 1.771 0 0.077 0 0.153 0.001 0.229v-0.012c2.547 0.337 5.493 0.529 8.483 0.529 6.232 0 12.269-0.835 18.005-2.4l-0.479 0.111zM364.187 736.719c5.368 5.333 12.766 8.629 20.933 8.629 6.217 0 11.988-1.91 16.758-5.175l-0.102 0.066c8.236-24.758 22.191-45.744 40.351-62.168l0.124-0.111c15.879-15.877 35.321-28.191 57.024-35.639l1.049-0.313c3.279-4.694 5.24-10.52 5.24-16.804 0-16.328-13.236-29.564-29.564-29.564-8.145 0-15.52 3.294-20.868 8.622l0.001-0.001-90.84 90.682c-5.309 5.356-8.589 12.731-8.589 20.871s3.28 15.515 8.591 20.873l-0.002-0.002zM311.587 648.818c5.367 5.327 12.761 8.62 20.924 8.62s15.556-3.292 20.926-8.622l73.064-73.029c5.347-5.355 8.653-12.749 8.653-20.915 0-16.349-13.254-29.603-29.603-29.603-8.183 0-15.591 3.321-20.95 8.688l-73.031 73.084c-5.335 5.348-8.634 12.728-8.634 20.88s3.299 15.532 8.634 20.88l-0.001-0.001zM258.794 560.934c5.378 5.313 12.773 8.594 20.934 8.594 8.091 0 15.428-3.225 20.797-8.459l55.656-55.621c5.107-5.306 8.252-12.531 8.252-20.49 0-16.328-13.236-29.564-29.564-29.564-7.999 0-15.256 3.177-20.579 8.338l0.008-0.007-55.486 55.345c-5.329 5.357-8.622 12.743-8.622 20.897s3.294 15.54 8.624 20.899l-0.001-0.001zM223.721 455.347c5.379 5.332 12.784 8.626 20.959 8.626s15.58-3.294 20.961-8.628l20.2-20.183c5.102-5.305 8.245-12.527 8.245-20.482 0-16.328-13.236-29.564-29.564-29.564-8.004 0-15.265 3.181-20.588 8.347l0.007-0.007-2.534 2.516-0.088 0.106-0.123 0.106-17.457 17.387c-5.336 5.35-8.635 12.734-8.635 20.889s3.299 15.538 8.636 20.889l-0.001-0.001zM634.173 226.47c-3.646 3.645-8.683 5.899-14.245 5.899s-10.599-2.254-14.245-5.899l-17.915-17.897c-17.035-17.035-47.884-14.888-77.73-12.811-32.398 2.253-65.904 4.575-87.584-17.598l-74.192-74.104-185.534 185.164 65.657 65.534c10.383-6.456 22.985-10.284 36.48-10.284 38.575 0 69.846 31.271 69.846 69.846 0 0.002 0 0.005 0 0.007v0c0 0.176 0 0.352 0 0.528h0.528c0.047 0 0.103 0 0.158 0 38.478 0 69.67 31.192 69.67 69.67 0 0.025 0 0.050 0 0.074v-0.004c0 0.176 0 0.352 0 0.528h0.528c0.069 0 0.15 0 0.232 0 38.439 0 69.599 31.161 69.599 69.599 0 0.235-0.001 0.47-0.003 0.705v-0.036h0.546c38.564 0.027 69.816 31.295 69.816 69.863 0 13.437-3.793 25.988-10.368 36.64l0.173-0.301 57.545 57.527c4.010 3.998 9.163 6.852 14.926 8.027l0.19 0.032c0.598 0 1.197 0.158 1.76 0.282 1.273 0.195 2.742 0.306 4.236 0.306 16.299 0 29.512-13.213 29.512-29.512 0-8.163-3.314-15.552-8.67-20.894l-0.001-0.001-17.774-17.633-20.185-20.15c-3.496-3.619-5.651-8.554-5.651-13.992 0-11.128 9.021-20.15 20.15-20.15 5.429 0 10.357 2.147 13.981 5.639l17.592 17.592 2.745 2.552c5.355 5.289 12.718 8.555 20.844 8.555 8.179 0 15.584-3.309 20.951-8.662l-0.001 0.001c5.33-5.347 8.625-12.724 8.625-20.871s-3.295-15.524-8.626-20.872l-17.597-17.597-20.185-20.097c-3.405-3.6-5.499-8.472-5.499-13.833 0-11.128 9.021-20.15 20.15-20.15 5.33 0 10.177 2.070 13.781 5.449l-0.011-0.010 20.185 20.097c5.312 5.137 12.557 8.302 20.542 8.302 16.328 0 29.564-13.236 29.564-29.564 0-7.972-3.155-15.207-8.285-20.524l0.008 0.009-35.196-35.196c-3.91-3.684-6.345-8.896-6.345-14.677 0-11.128 9.021-20.15 20.15-20.15 5.785 0 11.001 2.438 14.676 6.343l17.537 17.52c5.352 5.361 12.751 8.677 20.924 8.677 16.329 0 29.566-13.237 29.566-29.566 0-8.156-3.302-15.54-8.642-20.889v0l-17.598-17.492-27.787-27.752c-3.248-3.565-5.238-8.326-5.238-13.552 0-11.128 9.021-20.15 20.15-20.15 5.239 0 10.011 1.999 13.595 5.277l-0.015-0.014 13.586 13.586 65.112-65.112-185.393-185.27-66.467 66.397c4.981 3.193 9.313 6.675 13.24 10.565l-0.006-0.006 17.915 17.879c3.649 3.644 5.907 8.681 5.907 14.245s-2.257 10.601-5.906 14.245v0zM972.333 201.534l-215.89-215.644c-4.887-4.835-11.611-7.822-19.032-7.822s-14.145 2.987-19.034 7.824l0.002-0.002-35.6 35.548c-4.833 4.868-7.82 11.575-7.82 18.979s2.987 14.111 7.821 18.981l-0.002-0.002 215.89 215.626c4.888 4.84 11.615 7.83 19.041 7.83s14.153-2.99 19.043-7.833l-0.002 0.002 35.583-35.477c4.836-4.877 7.824-11.592 7.824-19.006s-2.988-14.129-7.826-19.008l0.002 0.002zM240.967 846.864c3.595-3.379 8.448-5.455 13.787-5.455 11.128 0 20.15 9.021 20.15 20.15 0 5.352-2.086 10.216-5.49 13.824l0.009-0.010-73.401 73.26c-3.669 3.793-8.804 6.148-14.49 6.148-11.128 0-20.15-9.021-20.15-20.15 0-5.703 2.369-10.853 6.177-14.518l0.006-0.006zM761.74 840.915c0.007 0 0.016 0 0.024 0 5.552 0 10.577 2.253 14.212 5.895v0l73.26 73.295c3.809 3.671 6.175 8.817 6.175 14.516 0 11.128-9.021 20.15-20.15 20.15-5.69 0-10.829-2.359-14.493-6.151l-0.006-0.006-73.348-73.26c-3.687-3.65-5.969-8.712-5.969-14.308 0-11.119 9.013-20.132 20.132-20.132 0.057 0 0.114 0 0.171 0.001h-0.009zM123.854 93.589c-3.572-3.633-5.777-8.62-5.777-14.122 0-5.624 2.304-10.711 6.021-14.366l0.003-0.003c3.628-3.543 8.595-5.729 14.073-5.729 11.128 0 20.15 9.021 20.15 20.15s-9.021 20.15-20.15 20.15c-5.626 0-10.714-2.306-14.369-6.024l-0.003-0.003zM683.429 255.453c0.012 0 0.026 0 0.040 0 11.128 0 20.15 9.021 20.15 20.15s-9.021 20.15-20.15 20.15c-3.314 0-6.441-0.8-9.198-2.217l0.113 0.053h-0.106c-6.589-3.399-11.016-10.157-11.016-17.95 0-11.119 9.013-20.132 20.132-20.132 0.019 0 0.037 0 0.056 0h-0.003z" />
<glyph unicode="&#xe94a;" glyph-name="twitter1" d="M950.144 960h-876.288c-40.79 0-73.856-33.066-73.856-73.856v0-876.288c0-40.79 33.066-73.856 73.856-73.856v0h876.288c40.79 0 73.856 33.066 73.856 73.856v0 876.288c0 40.79-33.066 73.856-73.856 73.856v0zM745.76 560.8q0.352-7.552 0.32-15.2c0.005-0.687 0.008-1.499 0.008-2.312 0-183.412-148.684-332.096-332.096-332.096-0.791 0-1.58 0.003-2.37 0.008l0.122-0.001c-0.075 0-0.163 0-0.251 0-66.817 0-129.034 19.691-181.166 53.586l1.289-0.786c8.37-1.039 18.059-1.632 27.885-1.632 0.052 0 0.103 0 0.155 0h-0.008c0.11 0 0.241 0 0.371 0 55.167 0 105.91 18.944 146.077 50.682l-0.496-0.378c-51.211 1-94.325 34.567-109.555 80.8l-0.237 0.832c6.679-1.352 14.357-2.126 22.215-2.126 10.984 0 21.616 1.512 31.697 4.34l-0.824-0.197c-54.149 11.221-94.267 58.525-94.272 115.199v0.001c0 0.544 0 0.992 0 1.504 15.34-8.7 33.587-14.071 53.034-14.683l0.182-0.005c-31.693 21.406-52.255 57.198-52.255 97.791 0 21.734 5.894 42.091 16.171 59.56l-0.3-0.551c58.214-71.222 144.334-117.742 241.43-122.751l0.81-0.033c-1.962 8.040-3.087 17.27-3.087 26.763 0 64.931 52.637 117.568 117.568 117.568 33.801 0 64.27-14.264 85.717-37.101l0.058-0.062c28.143 5.658 53.143 15.55 75.689 29.106l-1.065-0.594c-9.12-27.689-27.388-50.272-51.156-64.697l-0.524-0.295c25.037 3.025 47.835 9.538 68.963 19.093l-1.475-0.597c-16.088-23.843-35.54-43.987-57.944-60.327l-0.68-0.473z" />
<glyph unicode="&#xe94b;" glyph-name="user1" horiz-adv-x="917" d="M458.532 960c-0.1 0-0.22 0-0.339 0-146.821 0-265.843-119.022-265.843-265.843s119.022-265.843 265.843-265.843c146.821 0 265.843 119.022 265.843 265.843v0c-0.415 146.535-118.997 265.235-265.447 265.843h-0.058zM914.635 215.853c-7.725 18.64-16.684 34.682-27.235 49.514l0.515-0.763c-51.626 76.673-132.857 130.020-226.944 143.724l-1.785 0.213c-1.886 0.258-4.066 0.405-6.279 0.405-10.317 0-19.888-3.194-27.778-8.646l0.163 0.107c-46.225-34.091-104.313-54.562-167.183-54.562s-120.958 20.471-167.963 55.111l0.78-0.549c-7.213 5.498-16.351 8.809-26.262 8.809-2.697 0-5.337-0.245-7.899-0.715l0.267 0.041c-95.977-13.608-177.313-67.048-227.981-142.749l-0.749-1.188c-9.707-14.024-18.645-30.043-26.004-46.909l-0.716-1.842c-1.298-2.904-2.055-6.294-2.055-9.86 0-4.498 1.203-8.715 3.304-12.346l-0.063 0.119c10.609-17.872 20.959-33.029 32.147-47.505l-0.795 1.070c16.515-22.395 34.034-42.136 53.167-60.186l0.217-0.203c16.392-15.809 33.789-31.004 51.914-45.316l1.47-1.119c87.023-65.25 196.82-104.485 315.781-104.485s228.758 39.236 317.157 105.472l-1.376-0.987c19.65 14.91 37.066 30.124 53.384 46.436l-0.001-0.001c18.954 18.454 36.446 38.167 52.433 59.092l0.951 1.296c10.641 13.507 20.999 28.672 30.314 44.524l1.038 1.911c3.578 3.586 5.79 8.537 5.79 14.003 0 2.928-0.635 5.707-1.774 8.209l0.051-0.124z" />
<glyph unicode="&#xe94c;" glyph-name="ux-interface1" horiz-adv-x="1023" d="M481.56 221.047c-8.281 0-14.994-6.713-14.994-14.994s6.713-14.994 14.994-14.994h60.022c8.281 0 14.994 6.713 14.994 14.994s-6.713 14.994-14.994 14.994v0zM983.898 792.38h-129.47v136.324c-0.027 17.282-14.036 31.283-31.319 31.296h-623.050c-17.243-0.068-31.198-14.048-31.225-31.294v-136.327h-129.565c-21.677-0.027-39.242-17.592-39.269-39.267v-580.712c0.027-21.677 17.592-39.242 39.267-39.269h322.677v-49.979s0-0.167 0-0.262c-1.431-42.999-12.786-83.042-31.831-118.323l0.701 1.42h-47.599c-8.281 0-14.994-6.713-14.994-14.994s6.713-14.994 14.994-14.994h456.809c8.281 0 14.994 6.713 14.994 14.994s-6.713 14.994-14.994 14.994h-47.599c-18.374 33.855-29.726 73.907-31.095 116.481l-0.011 0.422s0 0.167 0 0.262v49.979h116.618c8.281 0 14.994 6.713 14.994 14.994s-6.713 14.994-14.994 14.994h-738.667c-5.121 0.013-9.268 4.161-9.282 9.281v76.636h963.192v-76.658c-0.013-5.121-4.161-9.268-9.281-9.282h-136.039c-8.281 0-14.994-6.713-14.994-14.994s6.713-14.994 14.994-14.994h136.038c21.677 0.027 39.242 17.592 39.269 39.267v580.712c-0.027 21.677-17.592 39.242-39.267 39.269h-0.003zM391.955 83.153v49.931h239.281v-49.836c0.809-42.771 10.952-82.983 28.467-118.944l-0.74 1.683h-294.734c16.778 34.285 26.921 74.506 27.722 117.012l0.004 0.272zM77.301 683.687v-404.593h-47.314v473.992c0.013 5.121 4.161 9.268 9.281 9.282h129.566v-41.411h-55.31c-20.078-0.333-36.226-16.687-36.226-36.813 0-0.161 0.001-0.321 0.003-0.481v0.024zM824.417 279.095h-625.667v116.618c0 8.281-6.713 14.994-14.994 14.994s-14.994-6.713-14.994-14.994v-116.618h-61.474v404.593c-0.011 0.143-0.017 0.309-0.017 0.477 0 3.569 2.737 6.498 6.226 6.804l0.026 0.002h55.31v-225.31c0-8.281 6.713-14.994 14.994-14.994s14.994 6.713 14.994 14.994v0 463.044c0 0.723 0.586 1.309 1.309 1.309v0h622.977c0.723 0 1.309-0.586 1.309-1.309v0-649.728zM915.879 279.095h-61.474v411.97h55.239c3.515-0.308 6.252-3.237 6.252-6.806 0-0.168-0.006-0.334-0.018-0.499l0.001 0.022zM993.18 279.095h-47.314v404.593c0.002 0.143 0.003 0.311 0.003 0.48 0 20.121-16.151 36.47-36.196 36.789h-55.269v41.506h129.47c5.121-0.013 9.268-4.161 9.282-9.281v-0.001zM298.209 572.043c17.773-11.525 39.504-18.377 62.836-18.377 0.316 0 0.632 0.001 0.947 0.004h-0.048c0.23-0.002 0.502-0.002 0.775-0.002 19.863 0 38.615 4.758 55.178 13.197l-0.69-0.319c38.567 17.213 64.975 55.195 65.044 99.354v136.975c0 27.603-22.376 49.979-49.979 49.979s-49.979-22.376-49.979-49.979v0-136.966c0-2.38 0-5.069-10.067-10.139-2.824-1.389-6.148-2.201-9.66-2.201-0.252 0-0.503 0.004-0.753 0.012l0.036-0.001c-0.198-0.008-0.43-0.013-0.664-0.013-3.423 0-6.616 0.989-9.308 2.696l0.071-0.042c-8.187 5.236-8.187 6.854-8.187 9.52v137.133c0 27.603-22.376 49.979-49.979 49.979s-49.979-22.376-49.979-49.979v0-137.109c0.063-39.9 21.711-74.731 53.889-93.445l0.517-0.277zM273.885 802.899c0.382 10.727 9.17 19.279 19.956 19.279s19.574-8.551 19.955-19.244l0.001-0.035v-137.109c0.039-15.276 8.927-28.466 21.808-34.718l0.23-0.101c7.213-4.632 16.017-7.383 25.463-7.383 0.252 0 0.503 0.002 0.754 0.006h-0.038c0.229-0.004 0.499-0.006 0.769-0.006 8.392 0 16.317 1.998 23.326 5.544l-0.296-0.136c15.518 5.415 26.47 19.885 26.56 36.926v136.954c-0.008 0.205-0.012 0.447-0.012 0.689 0 11.028 8.94 19.968 19.968 19.968s19.968-8.94 19.968-19.968c0-0.242-0.004-0.484-0.013-0.724l0.001 0.035v-136.966c-0.137-32.51-19.881-60.375-48.012-72.393l-0.516-0.196c-11.973-6.095-26.11-9.666-41.081-9.666-0.292 0-0.583 0.001-0.875 0.004h0.045c-0.212-0.002-0.462-0.003-0.712-0.003-17.353 0-33.518 5.085-47.086 13.847l0.342-0.207c-24.288 13.439-40.46 38.909-40.46 68.155 0 0.111 0 0.222 0.001 0.333v-0.017 137.109zM769.13 632.423l-59.19 77.991 48.099 63.783c6.89 8.496 11.062 19.44 11.062 31.359 0 27.603-22.376 49.979-49.979 49.979-16.818 0-31.697-8.307-40.755-21.042l-0.104-0.154-31.011-41.221-31.392 41.364c-9.236 11.367-23.215 18.57-38.877 18.57-27.603 0-49.979-22.376-49.979-49.979 0-10.875 3.474-20.939 9.372-29.143l-0.102 0.149 48.456-63.854-56.096-74.397c-6.89-8.496-11.062-19.44-11.062-31.359 0-27.603 22.376-49.979 49.979-49.979 16.818 0 31.697 8.307 40.755 21.042l0.104 0.154 39.103 51.835 42.125-55.501c9.236-11.367 23.215-18.57 38.877-18.57 27.603 0 49.979 22.376 49.979 49.979 0 10.875-3.474 20.939-9.372 29.143l0.102-0.149zM741.404 586.323c-3.311-2.538-7.512-4.066-12.069-4.066-6.467 0-12.216 3.078-15.86 7.85l-0.035 0.048-54.096 71.399c-2.758 3.606-7.058 5.912-11.898 5.926h-0.002c-4.849-0.026-9.15-2.349-11.873-5.937l-0.027-0.037-51.026-67.662c-3.69-4.564-9.289-7.459-15.564-7.459-11.028 0-19.968 8.94-19.968 19.968 0 4.321 1.373 8.322 3.705 11.589l-0.041-0.061 62.926 83.465c1.894 2.484 3.035 5.631 3.035 9.044s-1.141 6.56-3.061 9.080l0.027-0.037-55.334 72.898c-2.316 3.218-3.703 7.239-3.703 11.584 0 11.028 8.94 19.968 19.968 19.968 6.257 0 11.842-2.878 15.503-7.382l0.029-0.037 43.363-57.119c2.758-3.606 7.058-5.912 11.898-5.926h0.002c4.849 0.026 9.15 2.349 11.873 5.937l0.027 0.037 43.030 57.119c3.662 5.133 9.597 8.439 16.304 8.439 11.028 0 19.968-8.94 19.968-19.968 0-4.753-1.661-9.118-4.433-12.547l0.030 0.038-54.929-72.85c-1.894-2.484-3.035-5.631-3.035-9.044s1.141-6.56 3.061-9.080l-0.027 0.037 66.044-87.035c2.595-3.339 4.16-7.59 4.16-12.207 0-6.505-3.107-12.285-7.918-15.935l-0.050-0.036zM764.299 506.523h-505.503c-8.281 0-14.994-6.713-14.994-14.994s6.713-14.994 14.994-14.994h505.503c8.281 0 14.994 6.713 14.994 14.994s-6.713 14.994-14.994 14.994v0zM764.299 445.644h-505.503c-8.281 0-14.994-6.713-14.994-14.994s6.713-14.994 14.994-14.994h505.503c8.281 0 14.994 6.713 14.994 14.994s-6.713 14.994-14.994 14.994v0zM764.299 384.788h-505.503c-8.281 0-14.994-6.713-14.994-14.994s6.713-14.994 14.994-14.994h505.503c8.281 0 14.994 6.713 14.994 14.994s-6.713 14.994-14.994 14.994v0z" />
<glyph unicode="&#xe94d;" glyph-name="web-design1" horiz-adv-x="926" d="M845.493 826.837h-12.152c8.13 13.036 12.95 28.865 12.95 45.819 0 48.343-39.19 87.533-87.533 87.533-30.285 0-56.979-15.381-72.695-38.757l-0.199-0.314-63.097-94.282h-541.983c-44.588-0.050-80.722-36.176-80.785-80.757v-516.582c0.050-44.596 36.189-80.735 80.78-80.785h313.836l-23.708-99.553h-51.188c-33.395-0.038-60.457-27.1-60.495-60.491v-12.641h-63.075c-11.047 0-20.003-8.956-20.003-20.003s8.956-20.003 20.003-20.003v0h533.977c11.047 0 20.003 8.956 20.003 20.003s-8.956 20.003-20.003 20.003v0h-63.075v12.637c-0.038 33.395-27.1 60.457-60.491 60.495h-51.169l-23.708 99.597h313.832c44.591 0.063 80.722 36.194 80.785 80.779v516.538c-0.063 44.591-36.194 80.722-80.779 80.785h-0.006zM558.92 475.248c-31.273-21.9-89.849 7.873-145.801-22.054-13.652 70.904-5.050 137.596 66.008 152.307 7.717 1.663 16.583 2.615 25.671 2.615 0.636 0 1.271-0.005 1.905-0.014l-0.096 0.001 72.36-53.68c3.828-8.005 6.064-17.399 6.064-27.316 0-21.174-10.194-39.966-25.942-51.738l-0.169-0.121zM579.078 689.615l56.613-41.903-43.535-53.195-51.254 38.021zM719.1 898.866c8.667 12.662 23.047 20.864 39.343 20.864 26.248 0 47.527-21.279 47.527-47.527 0-11.383-4.001-21.831-10.674-30.014l0.068 0.086-134.288-163.709-59.657 44.329zM627.046-11.379v-12.637h-327.77v12.637c0.013 11.31 9.178 20.476 20.487 20.488h286.794c11.31-0.013 20.476-9.178 20.488-20.487v-0.001zM514.261 49.16h-102.243l23.708 99.597h54.827zM886.293 229.542c-0.025-22.523-18.277-40.775-40.798-40.8h-764.711c-22.523 0.025-40.775 18.277-40.8 40.798v93.622h57.143c11.047 0 20.003 8.956 20.003 20.003s-8.956 20.003-20.003 20.003v0h-57.12v382.906c0.025 22.523 18.277 40.775 40.798 40.8h515.211l-92.76-138.633c-1.042 0.029-2.27 0.045-3.501 0.045-39.663 0-75.383-16.888-100.359-43.865l-0.082-0.090c-34.868-40.69-40.977-104.625-18.195-190.019 2.386-8.584 10.133-14.779 19.326-14.779 5.331 0 10.176 2.084 13.765 5.481l-0.009-0.009c51.717 49.424 116.116-4.411 173.787 42.19 22.586 19.329 36.809 47.864 36.809 79.722 0 13.093-2.403 25.625-6.791 37.18l0.24-0.72 183.381 223.453h43.866c22.523-0.025 40.775-18.277 40.8-40.798v-382.886h-629.141c-11.047 0-20.003-8.956-20.003-20.003s8.956-20.003 20.003-20.003v0h629.141zM173.28 362.771c-9.248-1.884-16.109-9.951-16.109-19.62 0-11.047 8.956-20.003 20.003-20.003s20.003 8.956 20.003 20.003c0 1.386-0.141 2.74-0.41 4.047l0.022-0.129c-1.883 9.237-9.94 16.089-19.598 16.089-1.384 0-2.735-0.141-4.040-0.409l0.129 0.022z" />
<glyph unicode="&#xe94e;" glyph-name="web-development1" horiz-adv-x="1028" d="M937.675 960h-847.31c-49.885-0.057-90.309-40.481-90.365-90.36v-843.299c0.057-49.885 40.481-90.309 90.36-90.365h847.315c49.885 0.057 90.309 40.481 90.365 90.36v843.299c-0.057 49.885-40.481 90.309-90.36 90.365h-0.005zM90.365 899.765h847.31c16.613-0.043 30.066-13.513 30.080-30.129v-150.577h-907.52v150.576c0.014 16.635 13.495 30.116 30.129 30.13h0.001zM937.675-3.765h-847.31c-16.635 0.014-30.116 13.495-30.13 30.129v632.459h907.52v-632.483c-0.028-16.606-13.476-30.063-30.076-30.105h-0.004zM616.246 566.039c-3.5 1.54-7.58 2.436-11.869 2.436-12.347 0-22.959-7.426-27.613-18.056l-0.076-0.194-180.706-421.647c-1.746-3.699-2.765-8.034-2.765-12.608 0-16.64 13.49-30.13 30.13-30.13 12.639 0 23.46 7.782 27.934 18.816l0.072 0.202 180.706 421.647c1.539 3.497 2.435 7.575 2.435 11.861 0 12.342-7.427 22.949-18.055 27.596l-0.194 0.076zM356.797 466.819c-5.563 6.942-14.041 11.349-23.548 11.349-7.163 0-13.742-2.502-18.91-6.679l0.057 0.045-150.601-120.471c-6.913-5.568-11.299-14.032-11.299-23.52s4.386-17.952 11.241-23.475l0.058-0.045 150.601-120.471c5.106-4.115 11.672-6.605 18.819-6.605 16.631 0 30.113 13.482 30.113 30.113 0 9.484-4.384 17.943-11.236 23.463l-0.058 0.045-121.194 96.95 121.194 96.95c6.942 5.563 11.349 14.041 11.349 23.548 0 7.163-2.502 13.742-6.679 18.91l0.045-0.057zM864.146 351.037l-150.601 120.471c-5.107 4.113-11.672 6.602-18.819 6.602-16.636 0-30.122-13.486-30.122-30.122 0-9.489 4.388-17.954 11.245-23.475l0.058-0.045 121.194-96.95-121.194-96.95c-6.916-5.567-11.304-14.031-11.304-23.52 0-16.636 13.486-30.122 30.122-30.122 7.147 0 13.712 2.489 18.877 6.647l-0.058-0.045 150.601 120.471c6.913 5.568 11.299 14.032 11.299 23.52s-4.386 17.952-11.241 23.475l-0.058 0.045zM185.021 807.828c0-17.026-13.802-30.828-30.828-30.828s-30.828 13.802-30.828 30.828c0 17.026 13.802 30.828 30.828 30.828s30.828-13.802 30.828-30.828zM308.385 807.828c0-17.026-13.802-30.828-30.828-30.828s-30.828 13.802-30.828 30.828c0 17.026 13.802 30.828 30.828 30.828s30.828-13.802 30.828-30.828zM431.749 807.828c0-17.026-13.802-30.828-30.828-30.828s-30.828 13.802-30.828 30.828c0 17.026 13.802 30.828 30.828 30.828s30.828-13.802 30.828-30.828zM694.739 779.294h180.706c16.263 0.483 29.263 13.782 29.263 30.118s-13 29.635-29.219 30.117l-0.044 0.001h-180.706c-0.258 0.008-0.562 0.012-0.867 0.012-16.64 0-30.13-13.49-30.13-30.13s13.49-30.13 30.13-30.13c0.305 0 0.609 0.005 0.911 0.014l-0.044-0.001z" />
<glyph unicode="&#xe94f;" glyph-name="webpage1" d="M231.238 233.289h33.026v-33.026h-33.026zM99.106 233.289h33.026v-33.026h-33.026zM165.158 233.289h33.026v-33.026h-33.026zM941.421 860.894h-49.553v49.553c-0.032 27.354-22.199 49.521-49.55 49.553h-660.634c-27.354-0.032-49.521-22.199-49.553-49.55v-49.556h-49.638c-45.551-0.097-82.445-37.021-82.493-82.574v-561.558c0.097-45.521 36.973-82.397 82.484-82.493h296.758c-2.925-27.237-17.063-50.689-37.637-65.957l-0.253-0.18h-44.063c-45.521-0.097-82.397-36.973-82.493-82.484v-0.009c0-0.025 0-0.055 0-0.086 0-27.349 22.13-49.529 49.46-49.61h495.481c27.354 0.032 49.521 22.199 49.553 49.55v0.003c-0.097 45.521-36.973 82.397-82.484 82.493h-44.1c-20.82 15.425-34.962 38.843-37.881 65.632l-0.037 0.42h296.635c45.521 0.097 82.397 36.973 82.493 82.484v561.79c-0.048 45.557-36.943 82.482-82.484 82.579h-0.009zM627.605 530.465h165.158v-231.238h-165.158zM640.889 563.491l58.030 92.848c2.522 3.57 6.632 5.872 11.279 5.872s8.757-2.303 11.25-5.829l0.029-0.043 58.030-92.848zM749.467 673.861c-8.32 13.155-22.789 21.764-39.27 21.764s-30.95-8.609-39.158-21.574l-0.112-0.19-76.406-122.033v-252.487h-171.018l-14.223 25.374q3.755 7.993 6.742 16.1l46.282 11.777v124.764l-46.282 11.777c-1.963 5.263-4.182 10.553-6.599 15.788l24.435 41.105-88.183 88.183-41.105-24.435c-5.234 2.418-10.525 4.637-15.788 6.599l-11.777 46.282h-111.85v66.109h693.685v-429.535h-33.026v252.601zM132.132 299.341h-33.026v462.475h33.026zM165.158 349.321c13.553-10.559 30.795-16.965 49.529-17.068h0.024c45.607 0 82.579 36.972 82.579 82.579s-36.972 82.579-82.579 82.579v0c-18.758-0.102-36-6.508-49.736-17.205l0.183 0.137v38.743c14.524 7.073 31.597 11.208 49.637 11.208 63.8 0 115.519-51.72 115.519-115.519s-51.72-115.519-115.519-115.519c-0.029 0-0.059 0-0.088 0h-49.548zM165.158 414.946c0 0.025 0 0.055 0 0.085 0 27.367 22.186 49.553 49.553 49.553s49.553-22.186 49.553-49.553c0-27.367-22.186-49.553-49.553-49.553v0c-27.334 0.032-49.488 22.166-49.553 49.49v0.006zM363.341 414.946c0.001 0.215 0.002 0.469 0.002 0.724 0 81.694-66.226 147.919-147.919 147.919-18.032 0-35.311-3.227-51.29-9.134l1.025 0.332v74.898h86.277l9.871-38.886 8.733-2.845c10.844-3.532 20.054-7.471 28.837-12.11l-0.988 0.476 8.136-4.182 34.59 20.566 51.942-51.857-20.566-34.619 4.238-8.136c4.157-7.776 8.096-16.967 11.265-26.508l0.369-1.284 2.845-8.733 38.857-9.899v-73.391l-38.886-9.899-2.845-8.733c-3.539-10.825-7.477-20.015-12.111-28.781l0.477 0.989-4.068-7.851 13.683-24.634h-77.857c33.897 27.415 55.396 68.997 55.413 115.602v0.003zM891.868 761.817h33.026v-462.475h-33.026zM181.685 926.974h660.63c9.128 0 16.527-7.399 16.527-16.527v0-148.63h-693.685v148.63c0 9.128 7.399 16.527 16.527 16.527v0zM776.207-14.447c0-9.128-7.399-16.527-16.527-16.527h-495.416c-9.128 0-16.527 7.399-16.527 16.527v0c0.032 27.354 22.199 49.521 49.55 49.553h429.538c27.305-0.097 49.407-22.239 49.439-49.55v-0.003zM636.309 68.046h-248.675c13.725 18.346 22.672 40.993 24.606 65.611l0.028 0.44h199.321c2.034-25.041 11.024-47.651 25.013-66.296l-0.236 0.329zM990.917 216.705c-0.032-27.354-22.199-49.521-49.55-49.553h-858.874c-27.354 0.032-49.521 22.199-49.553 49.55v561.613c0.032 27.354 22.199 49.521 49.55 49.553h49.641v-33.026h-33.026c-18.245 0-33.038-14.783-33.054-33.024v-462.477c0.016-18.233 14.793-33.010 33.024-33.026h825.818c18.233 0.016 33.010 14.793 33.026 33.024v462.477c-0.016 18.233-14.793 33.010-33.024 33.026h-33.027v33.026h49.553c27.354-0.032 49.521-22.199 49.553-49.55v-0.003zM297.289 893.948h-99.106v-99.106h99.106zM264.235 827.897h-33.026v33.026h33.026zM429.421 893.948h-99.106v-99.106h99.106zM396.367 827.897h-33.026v33.026h33.026zM561.553 893.948h-99.106v-99.106h99.106zM528.499 827.897h-33.026v33.026h33.026zM693.685 365.421h33.026v-33.026h-33.026zM693.685 497.553h33.026v-33.026h-33.026zM693.685 431.473h33.026v-33.026h-33.026z" />
<glyph unicode="&#xe950;" glyph-name="web-programming1" horiz-adv-x="1161" d="M457.928 215.098c-0.005 0-0.012 0-0.018 0-4.745 0-9.086 1.731-12.425 4.596l0.026-0.021-123.829 105.565c-4.132 3.536-6.735 8.756-6.735 14.584s2.602 11.049 6.708 14.563l0.026 0.022 123.829 105.565c3.369 3.010 7.84 4.85 12.74 4.85 10.581 0 19.159-8.578 19.159-19.159 0-5.979-2.739-11.319-7.031-14.832l-0.034-0.027-106.837-90.98 106.837-90.98c4.132-3.536 6.735-8.756 6.735-14.584 0-10.581-8.578-19.159-19.159-19.159-0.010 0-0.019 0-0.029 0h0.001zM702.732 215.098c-0.008 0-0.018 0-0.027 0-10.581 0-19.159 8.578-19.159 19.159 0 5.828 2.602 11.049 6.708 14.563l0.026 0.022 106.837 90.98-106.94 91.015c-3.946 3.525-6.419 8.628-6.419 14.309 0 10.581 8.578 19.159 19.159 19.159 4.602 0 8.825-1.623 12.128-4.327l-0.034 0.027 123.829-105.565c4.132-3.536 6.735-8.756 6.735-14.584s-2.602-11.049-6.708-14.563l-0.026-0.022-123.829-105.565c-3.28-2.831-7.573-4.568-12.271-4.609h-0.009zM536.422 135.881c-0.001 0-0.002 0-0.002 0-1.412 0-2.789 0.15-4.116 0.436l0.128-0.023c-8.747 1.894-15.204 9.566-15.204 18.746 0 1.401 0.15 2.767 0.436 4.082l-0.023-0.126 77.29 366.913c1.894 8.747 9.566 15.204 18.746 15.204 10.581 0 19.159-8.578 19.159-19.159 0-1.401-0.15-2.767-0.436-4.082l0.023 0.126-77.29-366.913c-1.891-8.735-9.546-15.187-18.71-15.203h-0.002zM1031.911-64h-903.266c-71.009 0.098-128.547 57.636-128.645 128.635v766.72c0.098 71.009 57.636 128.547 128.635 128.645h903.276c71.009-0.098 128.547-57.636 128.645-128.635v-766.72c-0.098-71.009-57.636-128.547-128.635-128.645h-0.010zM128.645 921.682c-49.862-0.059-90.268-40.464-90.327-90.321v-766.716c0.059-49.862 40.464-90.268 90.321-90.327h903.272c49.862 0.059 90.268 40.464 90.327 90.321v766.716c-0.059 49.862-40.464 90.268-90.321 90.327h-0.006zM1141.466 653.316h-1122.307c-10.581 0-19.159 8.578-19.159 19.159s8.578 19.159 19.159 19.159v0h1122.307c10.581 0 19.159-8.578 19.159-19.159s-8.578-19.159-19.159-19.159v0zM327.391 744.846c-33.492 0-60.642 27.15-60.642 60.642s27.15 60.642 60.642 60.642c33.492 0 60.642-27.15 60.642-60.642v0c-0.039-33.476-27.166-60.603-60.638-60.642h-0.004zM327.391 827.812c-12.329 0-22.324-9.995-22.324-22.324s9.995-22.324 22.324-22.324c12.329 0 22.324 9.995 22.324 22.324v0c0 0.020 0 0.045 0 0.069 0 12.336-9.991 22.339-22.322 22.358h-0.002zM141.097 745.466c-33.492 0-60.642 27.15-60.642 60.642s27.15 60.642 60.642 60.642c33.492 0 60.642-27.15 60.642-60.642v0c-0.039-33.476-27.166-60.603-60.638-60.642h-0.004zM141.097 828.431c-12.329 0-22.324-9.995-22.324-22.324s9.995-22.324 22.324-22.324c12.329 0 22.324 9.995 22.324 22.324v0c-0.020 12.321-10.003 22.304-22.322 22.324h-0.002zM513.685 744.262c-33.492 0-60.642 27.15-60.642 60.642s27.15 60.642 60.642 60.642c33.492 0 60.642-27.15 60.642-60.642v0c-0.039-33.476-27.166-60.603-60.638-60.642h-0.004zM513.685 827.227c-12.329 0-22.324-9.995-22.324-22.324s9.995-22.324 22.324-22.324c12.329 0 22.324 9.995 22.324 22.324v0c0 12.329-9.995 22.324-22.324 22.324v0z" />
<glyph unicode="&#xe951;" d="M1024 448c0-282.77-229.23-512-512-512s-512 229.23-512 512c0 282.77 229.23 512 512 512s512-229.23 512-512z" />
<glyph unicode="&#xe952;" d="M512.077 750.003c-166.834 0-302.080-135.246-302.080-302.080s135.246-302.080 302.080-302.080c166.834 0 302.080 135.246 302.080 302.080v0c-0.16 166.769-135.31 301.92-302.064 302.080h-0.016zM352.205 519.066c0 29.436 23.863 53.299 53.299 53.299s53.299-23.863 53.299-53.299c0-29.436-23.863-53.299-53.299-53.299v0c-0.015 0-0.033 0-0.051 0-29.447 0-53.321 23.857-53.35 53.296v0.003zM512.077 288.128c-0.113 0-0.247 0-0.382 0-44.021 0-83.856 17.921-112.608 46.865l-0.009 0.009c-2.987 3.171-4.823 7.457-4.823 12.17 0 9.812 7.954 17.766 17.766 17.766 4.714 0 8.999-1.836 12.179-4.832l-0.009 0.008c22.499-22.538 53.602-36.48 87.962-36.48 68.642 0 124.288 55.646 124.288 124.288 0 0.027 0 0.054 0 0.081v-0.004c0 9.812 7.954 17.766 17.766 17.766s17.766-7.954 17.766-17.766v0c-0.102-88.263-71.633-159.785-159.889-159.872h-0.009zM654.182 501.299h-106.598c-9.807 0.007-17.755 7.958-17.755 17.766 0 4.909 1.991 9.354 5.21 12.569v0l71.040 71.040c3.248 3.449 7.845 5.596 12.943 5.596 9.812 0 17.766-7.954 17.766-17.766 0-5.098-2.147-9.695-5.587-12.935l-0.009-0.008-40.73-40.73h63.693c9.812 0 17.766-7.954 17.766-17.766s-7.954-17.766-17.766-17.766v0zM423.245 519.066c0 9.812-7.954 17.766-17.766 17.766s-17.766-7.954-17.766-17.766c0-9.812 7.954-17.766 17.766-17.766v0c9.773 0.058 17.675 7.987 17.69 17.765v0.001z" />
<glyph unicode="&#xe953;" glyph-name="world-wide-web1" d="M995.489 279.578c18.054 50.18 28.49 108.082 28.49 168.422s-10.437 118.242-29.603 172l1.113-3.578c-0.521 1.83-1.078 3.355-1.729 4.83l0.093-0.236c-73.090 199.281-261.166 338.905-481.853 338.905s-408.763-139.623-480.71-335.353l-1.143-3.552c-0.561-1.242-1.118-2.768-1.573-4.338l-0.064-0.257c-18.054-50.18-28.49-108.082-28.49-168.422s10.437-118.242 29.603-172l-1.113 3.578c0.521-1.83 1.078-3.355 1.729-4.83l-0.093 0.236c73.090-199.281 261.166-338.905 481.853-338.905s408.763 139.623 480.71 335.353l1.143 3.552c0.56 1.241 1.117 2.767 1.572 4.336l0.064 0.258zM512 9.637c-19.511 0-50.917 35.308-77.225 114.106-12.29 36.407-22.824 80.034-29.652 124.878l-0.558 4.46h214.87c-7.39-49.307-17.923-92.934-31.838-135.021l1.628 5.683c-26.308-79.050-57.714-114.106-77.225-114.106zM395.628 326.278c-3.525 39.147-5.539 79.868-5.539 121.722s1.888 82.575 5.413 121.722h232.87c3.525-39.147 5.413-79.931 5.413-121.722s-1.888-82.575-5.413-121.722zM73.386 448c0 0.119 0 0.259 0 0.4 0 43.246 6.277 85.026 17.969 124.479l-0.787-3.094h231.486c-3.399-39.966-5.161-80.875-5.161-121.722s1.762-81.819 5.161-121.722h-231.486c-10.905 36.359-17.182 78.139-17.182 121.384 0 0.097 0 0.193 0 0.29v-0.015zM512 886.614c19.511 0 50.917-35.308 77.225-114.106 12.29-36.408 22.824-80.034 29.652-124.878l0.558-4.459h-214.87c7.386 49.303 17.919 92.93 31.837 135.016l-1.627-5.679c26.245 78.798 57.714 114.106 77.225 114.106zM701.947 569.785h231.423c10.921-36.47 17.206-78.378 17.206-121.753s-6.285-85.283-17.995-124.861l0.789 3.108h-231.423c3.399 39.966 5.161 80.875 5.161 121.722s-1.762 81.819-5.161 121.785zM904.733 643.17h-211.22c-10.041 84.738-33.639 161.871-68.683 232.306l1.843-4.093c122.657-34.306 221.639-117.049 276.842-225.768l1.155-2.508zM397.327 871.383c-33.229-66.359-56.848-143.511-66.577-224.93l-0.326-3.345h-210.968c56.331 111.202 155.264 193.938 274.768 227.531l3.103 0.745zM119.456 252.892h210.968c10.043-84.738 33.64-161.871 68.683-232.306l-1.843 4.093c-122.571 34.339-221.477 117.048-276.653 225.705l-1.155 2.508zM626.862 24.68c33.201 66.342 56.799 143.475 66.515 224.87l0.325 3.343h211.157c-56.41-111.238-155.463-193.969-275.085-227.471l-3.101-0.742z" />
<glyph unicode="&#xe954;" glyph-name="youtube1" d="M448.221 352.053l166.542 95.931-166.542 95.931zM950.141 960h-876.281c-40.791 0-73.859-33.068-73.859-73.859v0-876.281c0-40.791 33.068-73.859 73.859-73.859v0h876.281c40.791 0 73.859 33.068 73.859 73.859v0 876.281c0 40.791-33.068 73.859-73.859 73.859v0zM831.914 447.474c0.010-1.519 0.015-3.316 0.015-5.113 0-52.586-4.803-104.051-13.995-153.978l0.794 5.194c-7.635-27.529-28.877-48.771-55.842-56.272l-0.564-0.134c-50.068-13.186-250.339-13.186-250.339-13.186s-199.761 0-250.339 13.695c-27.529 7.635-48.771 28.877-56.272 55.842l-0.134 0.564c-8.399 44.64-13.203 95.993-13.203 148.468 0 1.909 0.006 3.817 0.019 5.723l-0.002-0.293c-0.010 1.533-0.016 3.345-0.016 5.16 0 52.57 4.803 104.017 13.995 153.928l-0.794-5.19c7.768 27.587 28.924 48.922 55.828 56.802l0.578 0.145c50.068 13.186 250.339 13.186 250.339 13.186s200.271 0 250.339-13.695c27.529-7.635 48.771-28.877 56.272-55.842l0.134-0.564c8.422-43.632 13.24-93.812 13.24-145.118 0-3.277-0.020-6.55-0.059-9.818l0.005 0.497z" />
<glyph unicode="&#xe955;" glyph-name="angle-left" horiz-adv-x="2325" d="M0 447.968l796.402 511.968v-1023.936zM2325.131 416.28h-1714.605v63.504h1714.605z" />
</font>
</defs>
</svg>
